<svg width="165" height="55" viewBox="0 0 165 55" fill="none" xmlns="http://www.w3.org/2000/svg">
<g filter="url(#filter0_d_3200_1438)">
<rect x="3.35547" y="2" width="158.925" height="49" rx="6.39692" fill="#252B42"/>
<g clip-path="url(#clip0_3200_1438)">
<path d="M38.9165 27.1919C38.9044 25.1994 39.8376 23.6977 41.7221 22.5905C40.6681 21.1297 39.0735 20.3262 36.9716 20.1714C34.9814 20.0195 32.804 21.2933 32.0067 21.2933C31.1641 21.2933 29.2374 20.224 27.7213 20.224C24.5926 20.2707 21.2676 22.6372 21.2676 27.4519C21.2676 28.8747 21.5364 30.3443 22.0739 31.8576C22.7927 33.8501 25.3838 38.732 28.0867 38.6532C29.5001 38.621 30.4997 37.6832 32.3389 37.6832C34.1237 37.6832 35.0479 38.6532 36.6243 38.6532C39.3514 38.6152 41.6949 34.1773 42.3774 32.179C38.7202 30.5108 38.9165 27.2942 38.9165 27.1919ZM35.7425 18.2812C37.2736 16.5224 37.1347 14.9214 37.0894 14.3458C35.7364 14.4218 34.1721 15.2369 33.2812 16.239C32.2997 17.3141 31.7228 18.6434 31.8467 20.1422C33.3083 20.2503 34.6432 19.5228 35.7425 18.2812Z" fill="white"/>
</g>
<path d="M59.1125 19.5V13.231H61.9604C62.641 13.231 63.241 13.3624 63.7605 13.6251C64.2799 13.8818 64.6859 14.243 64.9784 14.7087C65.271 15.1744 65.4173 15.7267 65.4173 16.3655C65.4173 16.9984 65.271 17.5506 64.9784 18.0223C64.6859 18.488 64.2799 18.8522 63.7605 19.1149C63.241 19.3716 62.641 19.5 61.9604 19.5H59.1125ZM60.5633 18.3089H61.8887C62.3067 18.3089 62.6679 18.2313 62.9724 18.076C63.2828 17.9148 63.5216 17.688 63.6888 17.3954C63.862 17.1029 63.9485 16.7596 63.9485 16.3655C63.9485 15.9655 63.862 15.6222 63.6888 15.3356C63.5216 15.0431 63.2828 14.8192 62.9724 14.6639C62.6679 14.5027 62.3067 14.4221 61.8887 14.4221H60.5633V18.3089ZM68.8335 19.5716C68.32 19.5716 67.8633 19.4642 67.4633 19.2492C67.0692 19.0343 66.7558 18.7418 66.5229 18.3716C66.296 17.9954 66.1826 17.5686 66.1826 17.0909C66.1826 16.6073 66.296 16.1804 66.5229 15.8103C66.7558 15.4341 67.0692 15.1416 67.4633 14.9326C67.8633 14.7177 68.32 14.6102 68.8335 14.6102C69.341 14.6102 69.7947 14.7177 70.1947 14.9326C70.5948 15.1416 70.9082 15.4311 71.1351 15.8013C71.362 16.1715 71.4754 16.6013 71.4754 17.0909C71.4754 17.5686 71.362 17.9954 71.1351 18.3716C70.9082 18.7418 70.5948 19.0343 70.1947 19.2492C69.7947 19.4642 69.341 19.5716 68.8335 19.5716ZM68.8335 18.4253C69.0663 18.4253 69.2753 18.3716 69.4604 18.2641C69.6455 18.1566 69.7917 18.0044 69.8992 17.8074C70.0067 17.6044 70.0604 17.3656 70.0604 17.0909C70.0604 16.8103 70.0067 16.5715 69.8992 16.3745C69.7917 16.1774 69.6455 16.0252 69.4604 15.9177C69.2753 15.8103 69.0663 15.7565 68.8335 15.7565C68.6006 15.7565 68.3917 15.8103 68.2066 15.9177C68.0215 16.0252 67.8722 16.1774 67.7588 16.3745C67.6513 16.5715 67.5976 16.8103 67.5976 17.0909C67.5976 17.3656 67.6513 17.6044 67.7588 17.8074C67.8722 18.0044 68.0215 18.1566 68.2066 18.2641C68.3917 18.3716 68.6006 18.4253 68.8335 18.4253ZM73.5075 19.5L71.7701 14.6818H73.0866L74.5285 18.8283H73.9016L75.4061 14.6818H76.5883L78.0481 18.8283H77.4212L78.9078 14.6818H80.1437L78.3973 19.5H77.045L75.7644 15.9446H76.1763L74.8509 19.5H73.5075ZM83.8497 14.6102C84.2318 14.6102 84.5721 14.6878 84.8706 14.843C85.1751 14.9923 85.4139 15.2252 85.5871 15.5416C85.7602 15.8521 85.8468 16.2521 85.8468 16.7416V19.5H84.4497V16.9566C84.4497 16.5685 84.3631 16.2819 84.19 16.0968C84.0228 15.9118 83.784 15.8192 83.4735 15.8192C83.2526 15.8192 83.0526 15.867 82.8735 15.9625C82.7003 16.0521 82.563 16.1924 82.4615 16.3834C82.366 16.5745 82.3182 16.8193 82.3182 17.1178V19.5H80.9211V14.6818H82.2555V16.0162L82.0048 15.6132C82.1779 15.2908 82.4257 15.0431 82.7481 14.8699C83.0705 14.6968 83.4377 14.6102 83.8497 14.6102ZM87.2411 19.5V12.8549H88.6382V19.5H87.2411ZM92.3554 19.5716C91.8419 19.5716 91.3852 19.4642 90.9852 19.2492C90.5911 19.0343 90.2777 18.7418 90.0448 18.3716C89.8179 17.9954 89.7045 17.5686 89.7045 17.0909C89.7045 16.6073 89.8179 16.1804 90.0448 15.8103C90.2777 15.4341 90.5911 15.1416 90.9852 14.9326C91.3852 14.7177 91.8419 14.6102 92.3554 14.6102C92.8629 14.6102 93.3166 14.7177 93.7167 14.9326C94.1167 15.1416 94.4301 15.4311 94.657 15.8013C94.8839 16.1715 94.9973 16.6013 94.9973 17.0909C94.9973 17.5686 94.8839 17.9954 94.657 18.3716C94.4301 18.7418 94.1167 19.0343 93.7167 19.2492C93.3166 19.4642 92.8629 19.5716 92.3554 19.5716ZM92.3554 18.4253C92.5882 18.4253 92.7972 18.3716 92.9823 18.2641C93.1674 18.1566 93.3136 18.0044 93.4211 17.8074C93.5286 17.6044 93.5823 17.3656 93.5823 17.0909C93.5823 16.8103 93.5286 16.5715 93.4211 16.3745C93.3136 16.1774 93.1674 16.0252 92.9823 15.9177C92.7972 15.8103 92.5882 15.7565 92.3554 15.7565C92.1225 15.7565 91.9136 15.8103 91.7285 15.9177C91.5434 16.0252 91.3941 16.1774 91.2807 16.3745C91.1732 16.5715 91.1195 16.8103 91.1195 17.0909C91.1195 17.3656 91.1732 17.6044 91.2807 17.8074C91.3941 18.0044 91.5434 18.1566 91.7285 18.2641C91.9136 18.3716 92.1225 18.4253 92.3554 18.4253ZM98.9358 19.5V18.5597L98.8462 18.3537V16.67C98.8462 16.3715 98.7537 16.1386 98.5686 15.9715C98.3895 15.8043 98.1118 15.7207 97.7357 15.7207C97.479 15.7207 97.2252 15.7625 96.9745 15.8461C96.7297 15.9237 96.5207 16.0312 96.3476 16.1685L95.846 15.1923C96.1087 15.0072 96.4252 14.8639 96.7954 14.7624C97.1655 14.6609 97.5417 14.6102 97.9238 14.6102C98.6581 14.6102 99.2283 14.7833 99.6343 15.1296C100.04 15.4759 100.243 16.0162 100.243 16.7506V19.5H98.9358ZM97.467 19.5716C97.0909 19.5716 96.7685 19.509 96.4998 19.3836C96.2311 19.2522 96.0252 19.0761 95.8819 18.8552C95.7386 18.6343 95.6669 18.3865 95.6669 18.1119C95.6669 17.8253 95.7356 17.5745 95.8729 17.3596C96.0162 17.1447 96.2401 16.9775 96.5446 16.8581C96.8491 16.7327 97.2461 16.67 97.7357 16.67H99.0164V17.485H97.8879C97.5596 17.485 97.3327 17.5387 97.2073 17.6462C97.0879 17.7536 97.0282 17.888 97.0282 18.0492C97.0282 18.2283 97.0969 18.3716 97.2342 18.4791C97.3775 18.5805 97.5715 18.6313 97.8163 18.6313C98.0491 18.6313 98.2581 18.5776 98.4432 18.4701C98.6283 18.3567 98.7626 18.1925 98.8462 17.9775L99.0611 18.6223C98.9596 18.9328 98.7746 19.1686 98.5059 19.3298C98.2372 19.491 97.8909 19.5716 97.467 19.5716ZM103.739 19.5716C103.286 19.5716 102.877 19.4701 102.512 19.2672C102.148 19.0582 101.859 18.7686 101.644 18.3985C101.435 18.0283 101.33 17.5924 101.33 17.0909C101.33 16.5834 101.435 16.1446 101.644 15.7744C101.859 15.4043 102.148 15.1177 102.512 14.9147C102.877 14.7117 103.286 14.6102 103.739 14.6102C104.145 14.6102 104.501 14.6998 104.805 14.8789C105.11 15.058 105.345 15.3296 105.513 15.6938C105.68 16.058 105.763 16.5237 105.763 17.0909C105.763 17.6521 105.683 18.1178 105.522 18.488C105.36 18.8522 105.128 19.1239 104.823 19.303C104.525 19.4821 104.163 19.5716 103.739 19.5716ZM103.981 18.4253C104.208 18.4253 104.414 18.3716 104.599 18.2641C104.784 18.1566 104.931 18.0044 105.038 17.8074C105.151 17.6044 105.208 17.3656 105.208 17.0909C105.208 16.8103 105.151 16.5715 105.038 16.3745C104.931 16.1774 104.784 16.0252 104.599 15.9177C104.414 15.8103 104.208 15.7565 103.981 15.7565C103.748 15.7565 103.539 15.8103 103.354 15.9177C103.169 16.0252 103.02 16.1774 102.907 16.3745C102.799 16.5715 102.745 16.8103 102.745 17.0909C102.745 17.3656 102.799 17.6044 102.907 17.8074C103.02 18.0044 103.169 18.1566 103.354 18.2641C103.539 18.3716 103.748 18.4253 103.981 18.4253ZM105.244 19.5V18.5149L105.271 17.082L105.181 15.658V12.8549H106.578V19.5H105.244ZM112.956 19.5716C112.443 19.5716 111.986 19.4642 111.586 19.2492C111.192 19.0343 110.878 18.7418 110.646 18.3716C110.419 17.9954 110.305 17.5686 110.305 17.0909C110.305 16.6073 110.419 16.1804 110.646 15.8103C110.878 15.4341 111.192 15.1416 111.586 14.9326C111.986 14.7177 112.443 14.6102 112.956 14.6102C113.464 14.6102 113.917 14.7177 114.317 14.9326C114.717 15.1416 115.031 15.4311 115.258 15.8013C115.485 16.1715 115.598 16.6013 115.598 17.0909C115.598 17.5686 115.485 17.9954 115.258 18.3716C115.031 18.7418 114.717 19.0343 114.317 19.2492C113.917 19.4642 113.464 19.5716 112.956 19.5716ZM112.956 18.4253C113.189 18.4253 113.398 18.3716 113.583 18.2641C113.768 18.1566 113.914 18.0044 114.022 17.8074C114.129 17.6044 114.183 17.3656 114.183 17.0909C114.183 16.8103 114.129 16.5715 114.022 16.3745C113.914 16.1774 113.768 16.0252 113.583 15.9177C113.398 15.8103 113.189 15.7565 112.956 15.7565C112.723 15.7565 112.514 15.8103 112.329 15.9177C112.144 16.0252 111.995 16.1774 111.882 16.3745C111.774 16.5715 111.72 16.8103 111.72 17.0909C111.72 17.3656 111.774 17.6044 111.882 17.8074C111.995 18.0044 112.144 18.1566 112.329 18.2641C112.514 18.3716 112.723 18.4253 112.956 18.4253ZM119.588 14.6102C119.971 14.6102 120.311 14.6878 120.609 14.843C120.914 14.9923 121.153 15.2252 121.326 15.5416C121.499 15.8521 121.586 16.2521 121.586 16.7416V19.5H120.188V16.9566C120.188 16.5685 120.102 16.2819 119.929 16.0968C119.762 15.9118 119.523 15.8192 119.212 15.8192C118.991 15.8192 118.791 15.867 118.612 15.9625C118.439 16.0521 118.302 16.1924 118.2 16.3834C118.105 16.5745 118.057 16.8193 118.057 17.1178V19.5H116.66V14.6818H117.994V16.0162L117.744 15.6132C117.917 15.2908 118.164 15.0431 118.487 14.8699C118.809 14.6968 119.176 14.6102 119.588 14.6102ZM127.614 19.5716C127.047 19.5716 126.605 19.4284 126.289 19.1418C125.972 18.8492 125.814 18.4164 125.814 17.8432V13.6161H127.211V17.8253C127.211 18.0283 127.265 18.1865 127.373 18.2999C127.48 18.4074 127.626 18.4611 127.811 18.4611C128.032 18.4611 128.22 18.4014 128.376 18.282L128.752 19.2672C128.608 19.3686 128.435 19.4463 128.232 19.5C128.035 19.5478 127.829 19.5716 127.614 19.5716ZM125.071 15.864V14.7893H128.411V15.864H125.071ZM132.592 14.6102C132.975 14.6102 133.315 14.6878 133.613 14.843C133.918 14.9923 134.157 15.2252 134.33 15.5416C134.503 15.8521 134.59 16.2521 134.59 16.7416V19.5H133.192V16.9566C133.192 16.5685 133.106 16.2819 132.933 16.0968C132.766 15.9118 132.527 15.8192 132.216 15.8192C131.995 15.8192 131.795 15.867 131.616 15.9625C131.443 16.0521 131.306 16.1924 131.204 16.3834C131.109 16.5745 131.061 16.8193 131.061 17.1178V19.5H129.664V12.8549H131.061V16.0162L130.748 15.6132C130.921 15.2908 131.168 15.0431 131.491 14.8699C131.813 14.6968 132.18 14.6102 132.592 14.6102ZM138.41 19.5716C137.861 19.5716 137.377 19.4642 136.959 19.2492C136.547 19.0343 136.228 18.7418 136.001 18.3716C135.774 17.9954 135.661 17.5686 135.661 17.0909C135.661 16.6073 135.771 16.1804 135.992 15.8103C136.219 15.4341 136.526 15.1416 136.914 14.9326C137.302 14.7177 137.741 14.6102 138.231 14.6102C138.703 14.6102 139.126 14.7117 139.503 14.9147C139.885 15.1117 140.186 15.3983 140.407 15.7744C140.628 16.1446 140.738 16.5894 140.738 17.1088C140.738 17.1626 140.736 17.2253 140.73 17.2969C140.724 17.3626 140.718 17.4253 140.712 17.485H136.798V16.67H139.977L139.44 16.9118C139.44 16.661 139.389 16.4431 139.288 16.258C139.186 16.073 139.046 15.9297 138.867 15.8282C138.688 15.7207 138.479 15.667 138.24 15.667C138.001 15.667 137.789 15.7207 137.604 15.8282C137.425 15.9297 137.285 16.0759 137.183 16.267C137.082 16.4521 137.031 16.673 137.031 16.9297V17.1447C137.031 17.4074 137.088 17.6402 137.201 17.8432C137.32 18.0402 137.485 18.1925 137.694 18.2999C137.908 18.4014 138.159 18.4522 138.446 18.4522C138.703 18.4522 138.926 18.4134 139.118 18.3358C139.315 18.2581 139.494 18.1417 139.655 17.9865L140.398 18.7925C140.177 19.0433 139.9 19.2373 139.565 19.3746C139.231 19.506 138.846 19.5716 138.41 19.5716Z" fill="white"/>
<path d="M58.3947 38.5L62.4888 29.5443H63.4227L67.5167 38.5H66.5188L62.7574 30.0945H63.1412L59.3799 38.5H58.3947ZM60.0068 36.1076L60.2882 35.3399H65.4953L65.7768 36.1076H60.0068ZM72.4014 38.564C71.8214 38.564 71.2968 38.4318 70.8277 38.1674C70.3586 37.8944 69.9833 37.5063 69.7019 37.0031C69.4289 36.4914 69.2925 35.8687 69.2925 35.1352C69.2925 34.4017 69.4289 33.7833 69.7019 33.2801C69.9748 32.7684 70.3458 32.3803 70.8149 32.1159C71.2841 31.8515 71.8129 31.7193 72.4014 31.7193C73.0411 31.7193 73.6125 31.8643 74.1158 32.1543C74.6275 32.4357 75.0284 32.8366 75.3184 33.3569C75.6084 33.8686 75.7534 34.4614 75.7534 35.1352C75.7534 35.8176 75.6084 36.4146 75.3184 36.9264C75.0284 37.4381 74.6275 37.839 74.1158 38.129C73.6125 38.419 73.0411 38.564 72.4014 38.564ZM68.9342 40.982V31.7832H69.8042V33.8047L69.7147 35.148L69.8426 36.5042V40.982H68.9342ZM72.3374 37.758C72.815 37.758 73.2415 37.6513 73.6168 37.4381C73.9921 37.2164 74.2906 36.9093 74.5124 36.517C74.7341 36.1161 74.845 35.6555 74.845 35.1352C74.845 34.6149 74.7341 34.1586 74.5124 33.7663C74.2906 33.3739 73.9921 33.0669 73.6168 32.8451C73.2415 32.6234 72.815 32.5125 72.3374 32.5125C71.8598 32.5125 71.429 32.6234 71.0452 32.8451C70.6699 33.0669 70.3714 33.3739 70.1497 33.7663C69.9364 34.1586 69.8298 34.6149 69.8298 35.1352C69.8298 35.6555 69.9364 36.1161 70.1497 36.517C70.3714 36.9093 70.6699 37.2164 71.0452 37.4381C71.429 37.6513 71.8598 37.758 72.3374 37.758ZM81.2001 38.564C80.6202 38.564 80.0956 38.4318 79.6265 38.1674C79.1574 37.8944 78.7821 37.5063 78.5006 37.0031C78.2277 36.4914 78.0912 35.8687 78.0912 35.1352C78.0912 34.4017 78.2277 33.7833 78.5006 33.2801C78.7736 32.7684 79.1446 32.3803 79.6137 32.1159C80.0828 31.8515 80.6116 31.7193 81.2001 31.7193C81.8398 31.7193 82.4113 31.8643 82.9145 32.1543C83.4263 32.4357 83.8271 32.8366 84.1171 33.3569C84.4071 33.8686 84.5521 34.4614 84.5521 35.1352C84.5521 35.8176 84.4071 36.4146 84.1171 36.9264C83.8271 37.4381 83.4263 37.839 82.9145 38.129C82.4113 38.419 81.8398 38.564 81.2001 38.564ZM77.733 40.982V31.7832H78.603V33.8047L78.5134 35.148L78.6414 36.5042V40.982H77.733ZM81.1362 37.758C81.6138 37.758 82.0403 37.6513 82.4156 37.4381C82.7908 37.2164 83.0894 36.9093 83.3111 36.517C83.5329 36.1161 83.6438 35.6555 83.6438 35.1352C83.6438 34.6149 83.5329 34.1586 83.3111 33.7663C83.0894 33.3739 82.7908 33.0669 82.4156 32.8451C82.0403 32.6234 81.6138 32.5125 81.1362 32.5125C80.6585 32.5125 80.2278 32.6234 79.844 32.8451C79.4687 33.0669 79.1702 33.3739 78.9484 33.7663C78.7352 34.1586 78.6286 34.6149 78.6286 35.1352C78.6286 35.6555 78.7352 36.1161 78.9484 36.517C79.1702 36.9093 79.4687 37.2164 79.844 37.4381C80.2278 37.6513 80.6585 37.758 81.1362 37.758ZM92.6692 38.5768C92.0039 38.5768 91.3642 38.4701 90.7501 38.2569C90.1446 38.0352 89.6755 37.7537 89.3428 37.4125L89.7138 36.6833C90.0294 36.9903 90.4516 37.2505 90.9804 37.4637C91.5178 37.6684 92.0807 37.7708 92.6692 37.7708C93.2321 37.7708 93.6885 37.7025 94.0382 37.566C94.3964 37.4211 94.6565 37.2291 94.8186 36.9903C94.9892 36.7515 95.0745 36.4871 95.0745 36.1971C95.0745 35.8474 94.9721 35.5659 94.7674 35.3527C94.5712 35.1395 94.3111 34.9732 93.987 34.8538C93.6629 34.7258 93.3046 34.6149 92.9123 34.5211C92.52 34.4273 92.1276 34.3292 91.7353 34.2269C91.3429 34.116 90.9804 33.971 90.6478 33.7919C90.3237 33.6128 90.0593 33.3782 89.8546 33.0882C89.6584 32.7897 89.5603 32.4016 89.5603 31.924C89.5603 31.4804 89.6755 31.0753 89.9057 30.7086C90.1446 30.3333 90.5071 30.0347 90.9932 29.813C91.4794 29.5827 92.102 29.4676 92.8611 29.4676C93.3643 29.4676 93.8633 29.5401 94.358 29.685C94.8527 29.8215 95.2792 30.0134 95.6374 30.2608L95.3175 31.0156C94.9337 30.7597 94.5243 30.5721 94.0893 30.4527C93.6629 30.3333 93.2492 30.2736 92.8483 30.2736C92.311 30.2736 91.8675 30.3461 91.5178 30.4911C91.1681 30.6361 90.9079 30.8322 90.7373 31.0796C90.5753 31.3184 90.4943 31.5913 90.4943 31.8984C90.4943 32.2481 90.5923 32.5295 90.7885 32.7428C90.9932 32.956 91.2576 33.1223 91.5817 33.2417C91.9144 33.3611 92.2769 33.4678 92.6692 33.5616C93.0616 33.6554 93.4496 33.7578 93.8335 33.8686C94.2258 33.9795 94.584 34.1245 94.9081 34.3036C95.2408 34.4742 95.5052 34.7045 95.7014 34.9945C95.9061 35.2845 96.0084 35.664 96.0084 36.1331C96.0084 36.5681 95.889 36.9733 95.6502 37.3486C95.4114 37.7153 95.0446 38.0138 94.5499 38.2441C94.0637 38.4659 93.4368 38.5768 92.6692 38.5768ZM100.131 38.564C99.4999 38.564 99.0137 38.3934 98.6725 38.0522C98.3314 37.711 98.1608 37.2291 98.1608 36.6065V30.2992H99.0691V36.5553C99.0691 36.9477 99.1672 37.2505 99.3634 37.4637C99.5681 37.6769 99.8581 37.7835 100.233 37.7835C100.634 37.7835 100.967 37.6684 101.231 37.4381L101.551 38.0906C101.372 38.2527 101.155 38.3721 100.899 38.4488C100.651 38.5256 100.395 38.564 100.131 38.564ZM96.9581 32.5381V31.7832H101.116V32.5381H96.9581ZM105.833 38.564C105.185 38.564 104.601 38.419 104.08 38.129C103.569 37.8305 103.164 37.4253 102.865 36.9136C102.566 36.3933 102.417 35.8005 102.417 35.1352C102.417 34.4614 102.566 33.8686 102.865 33.3569C103.164 32.8451 103.569 32.4443 104.08 32.1543C104.592 31.8643 105.176 31.7193 105.833 31.7193C106.498 31.7193 107.087 31.8643 107.599 32.1543C108.119 32.4443 108.524 32.8451 108.814 33.3569C109.113 33.8686 109.262 34.4614 109.262 35.1352C109.262 35.8005 109.113 36.3933 108.814 36.9136C108.524 37.4253 108.119 37.8305 107.599 38.129C107.078 38.419 106.49 38.564 105.833 38.564ZM105.833 37.758C106.319 37.758 106.75 37.6513 107.125 37.4381C107.501 37.2164 107.795 36.9093 108.008 36.517C108.23 36.1161 108.341 35.6555 108.341 35.1352C108.341 34.6064 108.23 34.1458 108.008 33.7535C107.795 33.3611 107.501 33.0584 107.125 32.8451C106.75 32.6234 106.324 32.5125 105.846 32.5125C105.368 32.5125 104.942 32.6234 104.567 32.8451C104.191 33.0584 103.893 33.3611 103.671 33.7535C103.449 34.1458 103.338 34.6064 103.338 35.1352C103.338 35.6555 103.449 36.1161 103.671 36.517C103.893 36.9093 104.191 37.2164 104.567 37.4381C104.942 37.6513 105.364 37.758 105.833 37.758ZM111.244 38.5V31.7832H112.114V33.6128L112.025 33.2929C112.212 32.7812 112.528 32.3931 112.972 32.1287C113.415 31.8557 113.965 31.7193 114.622 31.7193V32.602C114.588 32.602 114.554 32.602 114.52 32.602C114.485 32.5935 114.451 32.5892 114.417 32.5892C113.709 32.5892 113.155 32.8067 112.754 33.2417C112.353 33.6682 112.153 34.278 112.153 35.0713V38.5H111.244ZM119.198 38.564C118.499 38.564 117.884 38.419 117.356 38.129C116.827 37.8305 116.413 37.4253 116.115 36.9136C115.816 36.3933 115.667 35.8005 115.667 35.1352C115.667 34.4699 115.808 33.8814 116.089 33.3697C116.379 32.8579 116.771 32.457 117.266 32.1671C117.769 31.8685 118.332 31.7193 118.955 31.7193C119.586 31.7193 120.145 31.8643 120.631 32.1543C121.126 32.4357 121.514 32.8366 121.795 33.3569C122.077 33.8686 122.217 34.4614 122.217 35.1352C122.217 35.1779 122.213 35.2248 122.204 35.276C122.204 35.3186 122.204 35.3655 122.204 35.4167H116.358V34.7386H121.718L121.36 35.0073C121.36 34.5211 121.253 34.0904 121.04 33.7151C120.836 33.3313 120.554 33.0328 120.196 32.8195C119.838 32.6063 119.424 32.4997 118.955 32.4997C118.494 32.4997 118.081 32.6063 117.714 32.8195C117.347 33.0328 117.061 33.3313 116.857 33.7151C116.652 34.0989 116.55 34.5382 116.55 35.0329V35.1736C116.55 35.6854 116.66 36.1374 116.882 36.5297C117.113 36.9136 117.428 37.2164 117.829 37.4381C118.238 37.6513 118.703 37.758 119.224 37.758C119.633 37.758 120.012 37.6855 120.362 37.5405C120.72 37.3955 121.027 37.1737 121.283 36.8752L121.795 37.4637C121.497 37.8219 121.121 38.0949 120.669 38.2825C120.226 38.4701 119.735 38.564 119.198 38.564Z" fill="white"/>
<rect x="3.67531" y="2.31985" width="158.285" height="48.3603" rx="6.07707" stroke="white" stroke-width="0.639692"/>
</g>
<defs>
<filter id="filter0_d_3200_1438" x="0.796702" y="0.720617" width="164.043" height="54.1175" filterUnits="userSpaceOnUse" color-interpolation-filters="sRGB">
<feFlood flood-opacity="0" result="BackgroundImageFix"/>
<feColorMatrix in="SourceAlpha" type="matrix" values="0 0 0 0 0 0 0 0 0 0 0 0 0 0 0 0 0 0 127 0" result="hardAlpha"/>
<feOffset dy="1.27938"/>
<feGaussianBlur stdDeviation="1.27938"/>
<feColorMatrix type="matrix" values="0 0 0 0 0 0 0 0 0 0 0 0 0 0 0 0 0 0 0.1 0"/>
<feBlend mode="normal" in2="BackgroundImageFix" result="effect1_dropShadow_3200_1438"/>
<feBlend mode="normal" in="SourceGraphic" in2="effect1_dropShadow_3200_1438" result="shape"/>
</filter>
<clipPath id="clip0_3200_1438">
<rect width="21.1098" height="24.3083" fill="white" transform="translate(21.2676 14.3458)"/>
</clipPath>
</defs>
</svg>
