<svg width="113" height="113" viewBox="0 0 113 113" fill="none" xmlns="http://www.w3.org/2000/svg">
<g filter="url(#filter0_d_1564_2502)">
<circle cx="56.5" cy="48.6655" r="30.5" fill="#9747FF"/>
</g>
<path d="M66.6666 52.0918H65.537C64.9131 52.0918 64.4074 52.5991 64.4074 53.2249V56.6244C64.4074 57.8761 63.3959 58.8907 62.1481 58.8907H58.7592C58.1354 58.8907 57.6296 58.3834 57.6296 57.7576V56.6244C57.6296 55.3728 56.6181 54.3581 55.3703 54.3581C54.1226 54.3581 53.1111 55.3728 53.1111 56.6244V57.7576C53.1111 58.3834 52.6053 58.8907 51.9815 58.8907H48.5926C47.3448 58.8907 46.3333 57.8761 46.3333 56.6244V53.2249C46.3333 52.5991 46.8391 52.0918 47.4629 52.0918H48.5926C49.8403 52.0918 50.8518 51.0771 50.8518 49.8255C50.8518 48.5738 49.8403 47.5591 48.5926 47.5591H47.4629C46.8391 47.5591 46.3333 47.0518 46.3333 46.426V43.0265C46.3333 41.7748 47.3448 40.7602 48.5926 40.7602H51.9815C52.6053 40.7602 53.1111 40.2528 53.1111 39.627V38.4939C53.1111 37.2422 54.1226 36.2275 55.3703 36.2275C56.6181 36.2275 57.6296 37.2422 57.6296 38.4939V39.627C57.6296 40.2528 58.1354 40.7602 58.7592 40.7602H62.1481C63.3959 40.7602 64.4074 41.7748 64.4074 43.0265V46.426C64.4074 47.0518 64.9131 47.5591 65.537 47.5591H66.6666C67.9144 47.5591 68.9259 48.5738 68.9259 49.8255C68.9259 51.0771 67.9144 52.0918 66.6666 52.0918Z" fill="white"/>
<defs>
<filter id="filter0_d_1564_2502" x="0.65786" y="0.426029" width="111.684" height="111.684" filterUnits="userSpaceOnUse" color-interpolation-filters="sRGB">
<feFlood flood-opacity="0" result="BackgroundImageFix"/>
<feColorMatrix in="SourceAlpha" type="matrix" values="0 0 0 0 0 0 0 0 0 0 0 0 0 0 0 0 0 0 127 0" result="hardAlpha"/>
<feOffset dy="7.60264"/>
<feGaussianBlur stdDeviation="12.6711"/>
<feComposite in2="hardAlpha" operator="out"/>
<feColorMatrix type="matrix" values="0 0 0 0 0.615686 0 0 0 0 0.623529 0 0 0 0 0.866667 0 0 0 0.1 0"/>
<feBlend mode="normal" in2="BackgroundImageFix" result="effect1_dropShadow_1564_2502"/>
<feBlend mode="normal" in="SourceGraphic" in2="effect1_dropShadow_1564_2502" result="shape"/>
</filter>
</defs>
</svg>
