<svg width="113" height="113" viewBox="0 0 113 113" fill="none" xmlns="http://www.w3.org/2000/svg">
<g filter="url(#filter0_d_1564_2508)">
<circle cx="56.5" cy="48.6655" r="30.5" fill="#F54135"/>
</g>
<path fill-rule="evenodd" clip-rule="evenodd" d="M64.4074 44.1595H63.7974C64.1956 43.4709 64.406 42.6892 64.4074 41.8931C64.4074 40.0157 62.8901 38.4937 61.0185 38.4937C59.1854 38.7187 57.5383 39.7266 56.5 41.2586C55.4616 39.7266 53.8146 38.7187 51.9815 38.4937C50.1098 38.4937 48.5926 40.0157 48.5926 41.8931C48.594 42.6892 48.8044 43.4709 49.2026 44.1595H48.5926C47.3448 44.1595 46.3333 45.1741 46.3333 46.4258V49.8252C46.3333 50.4511 46.8391 50.9584 47.4629 50.9584H48.5926V56.6242C48.5926 57.8759 49.6041 58.8905 50.8518 58.8905H62.1481C63.3959 58.8905 64.4074 57.8759 64.4074 56.6242V50.9584H65.537C66.1609 50.9584 66.6666 50.4511 66.6666 49.8252V46.4258C66.6666 45.1741 65.6551 44.1595 64.4074 44.1595ZM61.0185 40.7599C61.6424 40.7599 62.1481 41.2673 62.1481 41.8931C62.1493 42.6469 61.7767 43.352 61.1541 43.7741C60.7801 44.0262 60.3395 44.1604 59.8889 44.1594H57.6296C57.6296 42.9243 59.7872 40.7599 61.0185 40.7599ZM51.9815 40.7599C51.3576 40.7599 50.8518 41.2673 50.8518 41.8931C50.8518 43.1447 51.8633 44.1594 53.1111 44.1594H55.3703C55.3703 42.9243 53.2128 40.7599 51.9815 40.7599ZM48.5926 46.4257H55.3703V48.692H48.5926V46.4257ZM55.3703 50.9584H50.8518V56.6242H55.3703V50.9584ZM57.6296 56.6242V50.9584H62.1481V56.6242H57.6296ZM57.6296 46.4257V48.692H64.4074V46.4257H57.6296Z" fill="white"/>
<defs>
<filter id="filter0_d_1564_2508" x="0.65786" y="0.426029" width="111.684" height="111.684" filterUnits="userSpaceOnUse" color-interpolation-filters="sRGB">
<feFlood flood-opacity="0" result="BackgroundImageFix"/>
<feColorMatrix in="SourceAlpha" type="matrix" values="0 0 0 0 0 0 0 0 0 0 0 0 0 0 0 0 0 0 127 0" result="hardAlpha"/>
<feOffset dy="7.60264"/>
<feGaussianBlur stdDeviation="12.6711"/>
<feComposite in2="hardAlpha" operator="out"/>
<feColorMatrix type="matrix" values="0 0 0 0 0.615686 0 0 0 0 0.623529 0 0 0 0 0.866667 0 0 0 0.1 0"/>
<feBlend mode="normal" in2="BackgroundImageFix" result="effect1_dropShadow_1564_2508"/>
<feBlend mode="normal" in="SourceGraphic" in2="effect1_dropShadow_1564_2508" result="shape"/>
</filter>
</defs>
</svg>
