<svg width="113" height="113" viewBox="0 0 113 113" fill="none" xmlns="http://www.w3.org/2000/svg">
<g filter="url(#filter0_d_1564_2526)">
<circle cx="56.5" cy="48.6689" r="30.5" fill="#FFB800"/>
</g>
<path fill-rule="evenodd" clip-rule="evenodd" d="M57.6296 41.8964H64.9722C65.2842 41.8964 65.537 42.1501 65.537 42.463V52.6614C65.537 52.9743 65.2842 53.228 64.9722 53.228H57.6296C56.3819 53.228 55.3704 52.2133 55.3704 50.9617H49.7222V59.4604C49.7222 59.7733 49.4693 60.027 49.1574 60.027H48.0278C47.7158 60.027 47.463 59.7733 47.463 59.4604V37.9303C47.463 37.6174 47.7158 37.3638 48.0278 37.3638H49.1574C49.4693 37.3638 49.7222 37.6174 49.7222 37.9303V39.6301H55.3704C56.6181 39.6301 57.6296 40.6448 57.6296 41.8964ZM49.7222 48.6953H55.3704V41.8964H49.7222V48.6953Z" fill="white"/>
<defs>
<filter id="filter0_d_1564_2526" x="0.65786" y="0.429447" width="111.684" height="111.684" filterUnits="userSpaceOnUse" color-interpolation-filters="sRGB">
<feFlood flood-opacity="0" result="BackgroundImageFix"/>
<feColorMatrix in="SourceAlpha" type="matrix" values="0 0 0 0 0 0 0 0 0 0 0 0 0 0 0 0 0 0 127 0" result="hardAlpha"/>
<feOffset dy="7.60264"/>
<feGaussianBlur stdDeviation="12.6711"/>
<feComposite in2="hardAlpha" operator="out"/>
<feColorMatrix type="matrix" values="0 0 0 0 0.613889 0 0 0 0 0.624 0 0 0 0 0.866667 0 0 0 0.1 0"/>
<feBlend mode="normal" in2="BackgroundImageFix" result="effect1_dropShadow_1564_2526"/>
<feBlend mode="normal" in="SourceGraphic" in2="effect1_dropShadow_1564_2526" result="shape"/>
</filter>
</defs>
</svg>
