<svg width="32" height="31" viewBox="0 0 32 31" fill="none" xmlns="http://www.w3.org/2000/svg">
<path d="M22.6293 8.36362C22.3232 8.20393 21.9866 8.10238 21.6386 8.06478C21.2906 8.02717 20.9381 8.05424 20.6013 8.14445C20.2644 8.23465 19.9499 8.38622 19.6756 8.59048C19.4013 8.79475 19.1726 9.0477 19.0027 9.33487L14.052 17.6874L11.2187 15.0311C10.9727 14.7923 10.6784 14.6019 10.3531 14.4709C10.0277 14.3398 9.67783 14.2709 9.32375 14.268C8.96967 14.2651 8.61853 14.3284 8.2908 14.4541C7.96308 14.5798 7.66534 14.7654 7.41496 15.0001C7.16458 15.2349 6.96657 15.514 6.83249 15.8212C6.69841 16.1285 6.63093 16.4577 6.63401 16.7896C6.63709 17.1216 6.71065 17.4496 6.85041 17.7546C6.99017 18.0596 7.19332 18.3355 7.44801 18.5661L12.7813 23.5661C13.2853 24.0399 13.9653 24.2999 14.6667 24.2999L15.036 24.2749C15.4447 24.2213 15.8346 24.0795 16.175 23.8606C16.5153 23.6417 16.7968 23.3518 16.9973 23.0136L23.664 11.7636C23.8342 11.4767 23.9425 11.1611 23.9826 10.835C24.0227 10.5088 23.9939 10.1784 23.8978 9.86271C23.8017 9.54699 23.6403 9.2521 23.4226 8.99489C23.205 8.73767 22.9354 8.52317 22.6293 8.36362Z" fill="black"/>
</svg>
