<svg width="50" height="50" viewBox="0 0 50 50" fill="none" xmlns="http://www.w3.org/2000/svg">
<circle cx="25" cy="25" r="24.5" fill="white" stroke="#002928"/>
<path d="M17.6103 37.3268H10.7963C9.79602 37.3268 9.28895 36.1229 9.98784 35.4072L30.4244 14.4796C31.1894 13.6962 32.2534 13.2782 33.3471 13.3315L39.4051 13.6267C40.3736 13.6739 40.8369 14.8389 40.1652 15.5382L20.369 36.1514C19.6478 36.9023 18.6515 37.3268 17.6103 37.3268Z" fill="white" stroke="#002928" stroke-width="0.462321"/>
<path d="M39.9295 37.2834H30.2152C28.9113 23.288 16.0532 15.095 9.78711 12.7479C28.0073 11.4614 37.4737 28.5689 39.9295 37.2834Z" fill="black"/>
<path d="M16.5664 14.53C18.2829 15.1821 31.5615 19.9847 35.2125 35.7622" stroke="#FFEB3B" stroke-width="0.391177" stroke-dasharray="2.17 2.17"/>
</svg>
