<svg width="169" height="57" viewBox="0 0 169 57" fill="none" xmlns="http://www.w3.org/2000/svg">
<g filter="url(#filter0_d_3200_1437)">
<rect x="4" y="2" width="160.204" height="49" rx="6.39692" fill="#252B42"/>
<g clip-path="url(#clip0_3200_1437)">
<path d="M34.0416 25.9815L38.0472 21.9881L25.1091 14.7389C24.2516 14.277 23.4483 14.2122 22.7439 14.7173L34.0416 25.9815ZM38.73 30.6567L42.8941 28.3218C43.7069 27.868 44.1526 27.2252 44.1526 26.5122C44.1526 25.8005 43.7069 25.1563 42.8955 24.7026L39.1255 22.5918L34.8814 26.8214L38.73 30.6567ZM22.0476 15.699C21.9609 15.9651 21.9121 16.2622 21.9121 16.5877V36.4462C21.9121 36.9607 22.0259 37.4036 22.2318 37.7561L33.2003 26.8201L22.0476 15.699ZM34.0416 27.6574L23.134 38.5326C23.3426 38.6123 23.5675 38.6542 23.8045 38.6542C24.2272 38.6542 24.6674 38.5299 25.1158 38.2814L37.653 31.2631L34.0416 27.6574Z" fill="white"/>
</g>
<path d="M61.0363 19.5V13.231H63.8842C64.5648 13.231 65.1649 13.3624 65.6843 13.6251C66.2037 13.8818 66.6097 14.243 66.9023 14.7087C67.1948 15.1744 67.3411 15.7267 67.3411 16.3655C67.3411 16.9984 67.1948 17.5506 66.9023 18.0223C66.6097 18.488 66.2037 18.8522 65.6843 19.1149C65.1649 19.3716 64.5648 19.5 63.8842 19.5H61.0363ZM62.4871 18.3089H63.8126C64.2305 18.3089 64.5917 18.2313 64.8962 18.076C65.2067 17.9148 65.4455 17.688 65.6126 17.3954C65.7858 17.1029 65.8724 16.7596 65.8724 16.3655C65.8724 15.9655 65.7858 15.6222 65.6126 15.3356C65.4455 15.0431 65.2067 14.8192 64.8962 14.6639C64.5917 14.5027 64.2305 14.4221 63.8126 14.4221H62.4871V18.3089ZM70.7573 19.5716C70.2438 19.5716 69.7871 19.4642 69.3871 19.2492C68.993 19.0343 68.6796 18.7418 68.4467 18.3716C68.2199 17.9954 68.1064 17.5686 68.1064 17.0909C68.1064 16.6073 68.2199 16.1804 68.4467 15.8103C68.6796 15.4341 68.993 15.1416 69.3871 14.9326C69.7871 14.7177 70.2438 14.6102 70.7573 14.6102C71.2648 14.6102 71.7185 14.7177 72.1186 14.9326C72.5186 15.1416 72.832 15.4311 73.0589 15.8013C73.2858 16.1715 73.3992 16.6013 73.3992 17.0909C73.3992 17.5686 73.2858 17.9954 73.0589 18.3716C72.832 18.7418 72.5186 19.0343 72.1186 19.2492C71.7185 19.4642 71.2648 19.5716 70.7573 19.5716ZM70.7573 18.4253C70.9902 18.4253 71.1991 18.3716 71.3842 18.2641C71.5693 18.1566 71.7156 18.0044 71.823 17.8074C71.9305 17.6044 71.9842 17.3656 71.9842 17.0909C71.9842 16.8103 71.9305 16.5715 71.823 16.3745C71.7156 16.1774 71.5693 16.0252 71.3842 15.9177C71.1991 15.8103 70.9902 15.7565 70.7573 15.7565C70.5245 15.7565 70.3155 15.8103 70.1304 15.9177C69.9453 16.0252 69.7961 16.1774 69.6826 16.3745C69.5752 16.5715 69.5214 16.8103 69.5214 17.0909C69.5214 17.3656 69.5752 17.6044 69.6826 17.8074C69.7961 18.0044 69.9453 18.1566 70.1304 18.2641C70.3155 18.3716 70.5245 18.4253 70.7573 18.4253ZM75.4314 19.5L73.694 14.6818H75.0105L76.4523 18.8283H75.8254L77.33 14.6818H78.5121L79.9719 18.8283H79.345L80.8317 14.6818H82.0675L80.3212 19.5H78.9689L77.6882 15.9446H78.1002L76.7747 19.5H75.4314ZM85.7735 14.6102C86.1556 14.6102 86.4959 14.6878 86.7944 14.843C87.0989 14.9923 87.3377 15.2252 87.5109 15.5416C87.684 15.8521 87.7706 16.2521 87.7706 16.7416V19.5H86.3735V16.9566C86.3735 16.5685 86.2869 16.2819 86.1138 16.0968C85.9466 15.9118 85.7078 15.8192 85.3973 15.8192C85.1764 15.8192 84.9764 15.867 84.7973 15.9625C84.6242 16.0521 84.4868 16.1924 84.3853 16.3834C84.2898 16.5745 84.2421 16.8193 84.2421 17.1178V19.5H82.845V14.6818H84.1794V16.0162L83.9286 15.6132C84.1018 15.2908 84.3495 15.0431 84.6719 14.8699C84.9943 14.6968 85.3615 14.6102 85.7735 14.6102ZM89.1649 19.5V12.8549H90.562V19.5H89.1649ZM94.2792 19.5716C93.7658 19.5716 93.309 19.4642 92.909 19.2492C92.5149 19.0343 92.2015 18.7418 91.9687 18.3716C91.7418 17.9954 91.6283 17.5686 91.6283 17.0909C91.6283 16.6073 91.7418 16.1804 91.9687 15.8103C92.2015 15.4341 92.5149 15.1416 92.909 14.9326C93.309 14.7177 93.7658 14.6102 94.2792 14.6102C94.7867 14.6102 95.2405 14.7177 95.6405 14.9326C96.0405 15.1416 96.354 15.4311 96.5808 15.8013C96.8077 16.1715 96.9211 16.6013 96.9211 17.0909C96.9211 17.5686 96.8077 17.9954 96.5808 18.3716C96.354 18.7418 96.0405 19.0343 95.6405 19.2492C95.2405 19.4642 94.7867 19.5716 94.2792 19.5716ZM94.2792 18.4253C94.5121 18.4253 94.721 18.3716 94.9061 18.2641C95.0912 18.1566 95.2375 18.0044 95.3449 17.8074C95.4524 17.6044 95.5061 17.3656 95.5061 17.0909C95.5061 16.8103 95.4524 16.5715 95.3449 16.3745C95.2375 16.1774 95.0912 16.0252 94.9061 15.9177C94.721 15.8103 94.5121 15.7565 94.2792 15.7565C94.0464 15.7565 93.8374 15.8103 93.6523 15.9177C93.4672 16.0252 93.318 16.1774 93.2045 16.3745C93.0971 16.5715 93.0433 16.8103 93.0433 17.0909C93.0433 17.3656 93.0971 17.6044 93.2045 17.8074C93.318 18.0044 93.4672 18.1566 93.6523 18.2641C93.8374 18.3716 94.0464 18.4253 94.2792 18.4253ZM100.86 19.5V18.5597L100.77 18.3537V16.67C100.77 16.3715 100.677 16.1386 100.492 15.9715C100.313 15.8043 100.036 15.7207 99.6595 15.7207C99.4028 15.7207 99.1491 15.7625 98.8983 15.8461C98.6535 15.9237 98.4445 16.0312 98.2714 16.1685L97.7699 15.1923C98.0326 15.0072 98.349 14.8639 98.7192 14.7624C99.0893 14.6609 99.4655 14.6102 99.8476 14.6102C100.582 14.6102 101.152 14.7833 101.558 15.1296C101.964 15.4759 102.167 16.0162 102.167 16.7506V19.5H100.86ZM99.3909 19.5716C99.0147 19.5716 98.6923 19.509 98.4236 19.3836C98.155 19.2522 97.949 19.0761 97.8057 18.8552C97.6624 18.6343 97.5908 18.3865 97.5908 18.1119C97.5908 17.8253 97.6594 17.5745 97.7967 17.3596C97.94 17.1447 98.1639 16.9775 98.4684 16.8581C98.7729 16.7327 99.1699 16.67 99.6595 16.67H100.94V17.485H99.8118C99.4834 17.485 99.2565 17.5387 99.1311 17.6462C99.0117 17.7536 98.952 17.888 98.952 18.0492C98.952 18.2283 99.0207 18.3716 99.158 18.4791C99.3013 18.5805 99.4953 18.6313 99.7401 18.6313C99.973 18.6313 100.182 18.5776 100.367 18.4701C100.552 18.3567 100.686 18.1925 100.77 17.9775L100.985 18.6223C100.883 18.9328 100.698 19.1686 100.43 19.3298C100.161 19.491 99.8148 19.5716 99.3909 19.5716ZM105.663 19.5716C105.209 19.5716 104.801 19.4701 104.436 19.2672C104.072 19.0582 103.783 18.7686 103.568 18.3985C103.359 18.0283 103.254 17.5924 103.254 17.0909C103.254 16.5834 103.359 16.1446 103.568 15.7744C103.783 15.4043 104.072 15.1177 104.436 14.9147C104.801 14.7117 105.209 14.6102 105.663 14.6102C106.069 14.6102 106.424 14.6998 106.729 14.8789C107.033 15.058 107.269 15.3296 107.436 15.6938C107.604 16.058 107.687 16.5237 107.687 17.0909C107.687 17.6521 107.607 18.1178 107.445 18.488C107.284 18.8522 107.051 19.1239 106.747 19.303C106.448 19.4821 106.087 19.5716 105.663 19.5716ZM105.905 18.4253C106.132 18.4253 106.338 18.3716 106.523 18.2641C106.708 18.1566 106.854 18.0044 106.962 17.8074C107.075 17.6044 107.132 17.3656 107.132 17.0909C107.132 16.8103 107.075 16.5715 106.962 16.3745C106.854 16.1774 106.708 16.0252 106.523 15.9177C106.338 15.8103 106.132 15.7565 105.905 15.7565C105.672 15.7565 105.463 15.8103 105.278 15.9177C105.093 16.0252 104.944 16.1774 104.83 16.3745C104.723 16.5715 104.669 16.8103 104.669 17.0909C104.669 17.3656 104.723 17.6044 104.83 17.8074C104.944 18.0044 105.093 18.1566 105.278 18.2641C105.463 18.3716 105.672 18.4253 105.905 18.4253ZM107.168 19.5V18.5149L107.195 17.082L107.105 15.658V12.8549H108.502V19.5H107.168ZM114.88 19.5716C114.367 19.5716 113.91 19.4642 113.51 19.2492C113.116 19.0343 112.802 18.7418 112.569 18.3716C112.343 17.9954 112.229 17.5686 112.229 17.0909C112.229 16.6073 112.343 16.1804 112.569 15.8103C112.802 15.4341 113.116 15.1416 113.51 14.9326C113.91 14.7177 114.367 14.6102 114.88 14.6102C115.388 14.6102 115.841 14.7177 116.241 14.9326C116.641 15.1416 116.955 15.4311 117.182 15.8013C117.409 16.1715 117.522 16.6013 117.522 17.0909C117.522 17.5686 117.409 17.9954 117.182 18.3716C116.955 18.7418 116.641 19.0343 116.241 19.2492C115.841 19.4642 115.388 19.5716 114.88 19.5716ZM114.88 18.4253C115.113 18.4253 115.322 18.3716 115.507 18.2641C115.692 18.1566 115.838 18.0044 115.946 17.8074C116.053 17.6044 116.107 17.3656 116.107 17.0909C116.107 16.8103 116.053 16.5715 115.946 16.3745C115.838 16.1774 115.692 16.0252 115.507 15.9177C115.322 15.8103 115.113 15.7565 114.88 15.7565C114.647 15.7565 114.438 15.8103 114.253 15.9177C114.068 16.0252 113.919 16.1774 113.805 16.3745C113.698 16.5715 113.644 16.8103 113.644 17.0909C113.644 17.3656 113.698 17.6044 113.805 17.8074C113.919 18.0044 114.068 18.1566 114.253 18.2641C114.438 18.3716 114.647 18.4253 114.88 18.4253ZM121.512 14.6102C121.894 14.6102 122.235 14.6878 122.533 14.843C122.838 14.9923 123.077 15.2252 123.25 15.5416C123.423 15.8521 123.509 16.2521 123.509 16.7416V19.5H122.112V16.9566C122.112 16.5685 122.026 16.2819 121.853 16.0968C121.685 15.9118 121.447 15.8192 121.136 15.8192C120.915 15.8192 120.715 15.867 120.536 15.9625C120.363 16.0521 120.226 16.1924 120.124 16.3834C120.029 16.5745 119.981 16.8193 119.981 17.1178V19.5H118.584V14.6818H119.918V16.0162L119.667 15.6132C119.841 15.2908 120.088 15.0431 120.411 14.8699C120.733 14.6968 121.1 14.6102 121.512 14.6102ZM129.538 19.5716C128.971 19.5716 128.529 19.4284 128.213 19.1418C127.896 18.8492 127.738 18.4164 127.738 17.8432V13.6161H129.135V17.8253C129.135 18.0283 129.189 18.1865 129.296 18.2999C129.404 18.4074 129.55 18.4611 129.735 18.4611C129.956 18.4611 130.144 18.4014 130.299 18.282L130.676 19.2672C130.532 19.3686 130.359 19.4463 130.156 19.5C129.959 19.5478 129.753 19.5716 129.538 19.5716ZM126.995 15.864V14.7893H130.335V15.864H126.995ZM134.516 14.6102C134.898 14.6102 135.239 14.6878 135.537 14.843C135.842 14.9923 136.08 15.2252 136.254 15.5416C136.427 15.8521 136.513 16.2521 136.513 16.7416V19.5H135.116V16.9566C135.116 16.5685 135.03 16.2819 134.857 16.0968C134.689 15.9118 134.451 15.8192 134.14 15.8192C133.919 15.8192 133.719 15.867 133.54 15.9625C133.367 16.0521 133.23 16.1924 133.128 16.3834C133.033 16.5745 132.985 16.8193 132.985 17.1178V19.5H131.588V12.8549H132.985V16.0162L132.671 15.6132C132.845 15.2908 133.092 15.0431 133.415 14.8699C133.737 14.6968 134.104 14.6102 134.516 14.6102ZM140.334 19.5716C139.785 19.5716 139.301 19.4642 138.883 19.2492C138.471 19.0343 138.152 18.7418 137.925 18.3716C137.698 17.9954 137.584 17.5686 137.584 17.0909C137.584 16.6073 137.695 16.1804 137.916 15.8103C138.143 15.4341 138.45 15.1416 138.838 14.9326C139.226 14.7177 139.665 14.6102 140.155 14.6102C140.626 14.6102 141.05 14.7117 141.426 14.9147C141.809 15.1117 142.11 15.3983 142.331 15.7744C142.552 16.1446 142.662 16.5894 142.662 17.1088C142.662 17.1626 142.659 17.2253 142.653 17.2969C142.647 17.3626 142.641 17.4253 142.635 17.485H138.722V16.67H141.901L141.364 16.9118C141.364 16.661 141.313 16.4431 141.211 16.258C141.11 16.073 140.97 15.9297 140.791 15.8282C140.611 15.7207 140.402 15.667 140.164 15.667C139.925 15.667 139.713 15.7207 139.528 15.8282C139.349 15.9297 139.208 16.0759 139.107 16.267C139.005 16.4521 138.955 16.673 138.955 16.9297V17.1447C138.955 17.4074 139.011 17.6402 139.125 17.8432C139.244 18.0402 139.408 18.1925 139.617 18.2999C139.832 18.4014 140.083 18.4522 140.37 18.4522C140.626 18.4522 140.85 18.4134 141.041 18.3358C141.238 18.2581 141.417 18.1417 141.579 17.9865L142.322 18.7925C142.101 19.0433 141.823 19.2373 141.489 19.3746C141.155 19.506 140.77 19.5716 140.334 19.5716Z" fill="white"/>
<path d="M65.6792 38.5768C64.9968 38.5768 64.3657 38.4659 63.7857 38.2441C63.2142 38.0138 62.7153 37.694 62.2888 37.2846C61.8709 36.8752 61.5425 36.3933 61.3037 35.8389C61.0734 35.2845 60.9582 34.6789 60.9582 34.0222C60.9582 33.3654 61.0734 32.7598 61.3037 32.2054C61.5425 31.651 61.8751 31.1691 62.3016 30.7597C62.7281 30.3503 63.227 30.0347 63.7985 29.813C64.3785 29.5827 65.0096 29.4676 65.692 29.4676C66.3743 29.4676 66.9969 29.5742 67.5599 29.7874C68.1313 30.0006 68.6175 30.3247 69.0184 30.7597L68.4298 31.361C68.0546 30.9858 67.6409 30.7171 67.1888 30.555C66.7368 30.393 66.2506 30.3119 65.7303 30.3119C65.1759 30.3119 64.6642 30.4058 64.1951 30.5934C63.7345 30.7725 63.3294 31.0327 62.9797 31.3738C62.6385 31.7065 62.3698 32.0988 62.1737 32.5509C61.986 32.9944 61.8922 33.4848 61.8922 34.0222C61.8922 34.551 61.986 35.0414 62.1737 35.4934C62.3698 35.9455 62.6385 36.3421 62.9797 36.6833C63.3294 37.0159 63.7345 37.2761 64.1951 37.4637C64.6642 37.6428 65.1717 37.7324 65.7176 37.7324C66.2293 37.7324 66.7112 37.6556 67.1633 37.5021C67.6238 37.3486 68.046 37.0884 68.4298 36.7217L68.9672 37.4381C68.5407 37.8134 68.0418 38.0991 67.4703 38.2953C66.8989 38.4829 66.3018 38.5768 65.6792 38.5768ZM68.0588 37.323V34.0222H68.9672V37.4381L68.0588 37.323ZM74.3206 38.564C73.6724 38.564 73.0881 38.419 72.5679 38.129C72.0561 37.8305 71.651 37.4253 71.3524 36.9136C71.0539 36.3933 70.9047 35.8005 70.9047 35.1352C70.9047 34.4614 71.0539 33.8686 71.3524 33.3569C71.651 32.8451 72.0561 32.4443 72.5679 32.1543C73.0796 31.8643 73.6639 31.7193 74.3206 31.7193C74.9859 31.7193 75.5744 31.8643 76.0862 32.1543C76.6064 32.4443 77.0116 32.8451 77.3016 33.3569C77.6001 33.8686 77.7494 34.4614 77.7494 35.1352C77.7494 35.8005 77.6001 36.3933 77.3016 36.9136C77.0116 37.4253 76.6064 37.8305 76.0862 38.129C75.5659 38.419 74.9774 38.564 74.3206 38.564ZM74.3206 37.758C74.8068 37.758 75.2375 37.6513 75.6128 37.4381C75.9881 37.2164 76.2823 36.9093 76.4956 36.517C76.7173 36.1161 76.8282 35.6555 76.8282 35.1352C76.8282 34.6064 76.7173 34.1458 76.4956 33.7535C76.2823 33.3611 75.9881 33.0584 75.6128 32.8451C75.2375 32.6234 74.811 32.5125 74.3334 32.5125C73.8558 32.5125 73.4293 32.6234 73.054 32.8451C72.6787 33.0584 72.3802 33.3611 72.1585 33.7535C71.9367 34.1458 71.8258 34.6064 71.8258 35.1352C71.8258 35.6555 71.9367 36.1161 72.1585 36.517C72.3802 36.9093 72.6787 37.2164 73.054 37.4381C73.4293 37.6513 73.8515 37.758 74.3206 37.758ZM82.4697 38.564C81.8215 38.564 81.2372 38.419 80.7169 38.129C80.2052 37.8305 79.8 37.4253 79.5015 36.9136C79.203 36.3933 79.0537 35.8005 79.0537 35.1352C79.0537 34.4614 79.203 33.8686 79.5015 33.3569C79.8 32.8451 80.2052 32.4443 80.7169 32.1543C81.2287 31.8643 81.8129 31.7193 82.4697 31.7193C83.135 31.7193 83.7235 31.8643 84.2352 32.1543C84.7555 32.4443 85.1607 32.8451 85.4506 33.3569C85.7492 33.8686 85.8984 34.4614 85.8984 35.1352C85.8984 35.8005 85.7492 36.3933 85.4506 36.9136C85.1607 37.4253 84.7555 37.8305 84.2352 38.129C83.7149 38.419 83.1264 38.564 82.4697 38.564ZM82.4697 37.758C82.9558 37.758 83.3866 37.6513 83.7619 37.4381C84.1371 37.2164 84.4314 36.9093 84.6446 36.517C84.8664 36.1161 84.9773 35.6555 84.9773 35.1352C84.9773 34.6064 84.8664 34.1458 84.6446 33.7535C84.4314 33.3611 84.1371 33.0584 83.7619 32.8451C83.3866 32.6234 82.9601 32.5125 82.4825 32.5125C82.0048 32.5125 81.5784 32.6234 81.2031 32.8451C80.8278 33.0584 80.5293 33.3611 80.3075 33.7535C80.0858 34.1458 79.9749 34.6064 79.9749 35.1352C79.9749 35.6555 80.0858 36.1161 80.3075 36.517C80.5293 36.9093 80.8278 37.2164 81.2031 37.4381C81.5784 37.6513 82.0006 37.758 82.4697 37.758ZM90.7467 41.046C90.1326 41.046 89.5441 40.9564 88.9811 40.7773C88.4182 40.5982 87.9619 40.3423 87.6122 40.0097L88.0728 39.3188C88.3884 39.6003 88.7764 39.822 89.237 39.9841C89.7061 40.1547 90.2008 40.24 90.7211 40.24C91.574 40.24 92.2009 40.0395 92.6018 39.6387C93.0027 39.2463 93.2031 38.6322 93.2031 37.7963V36.1203L93.331 34.9689L93.2415 33.8175V31.7832H94.1115V37.6812C94.1115 38.8412 93.8257 39.6898 93.2543 40.2272C92.6914 40.773 91.8555 41.046 90.7467 41.046ZM90.5804 38.2441C89.9407 38.2441 89.365 38.1077 88.8532 37.8347C88.3415 37.5533 87.9363 37.1652 87.6378 36.6705C87.3478 36.1758 87.2028 35.6086 87.2028 34.9689C87.2028 34.3292 87.3478 33.7663 87.6378 33.2801C87.9363 32.7854 88.3415 32.4016 88.8532 32.1287C89.365 31.8557 89.9407 31.7193 90.5804 31.7193C91.1774 31.7193 91.7148 31.8429 92.1924 32.0903C92.67 32.3376 93.0496 32.7044 93.331 33.1906C93.6125 33.6767 93.7532 34.2695 93.7532 34.9689C93.7532 35.6683 93.6125 36.2611 93.331 36.7472C93.0496 37.2334 92.67 37.6044 92.1924 37.8603C91.7148 38.1162 91.1774 38.2441 90.5804 38.2441ZM90.6699 37.4381C91.1646 37.4381 91.6039 37.3358 91.9877 37.1311C92.3715 36.9178 92.6743 36.6278 92.8961 36.2611C93.1178 35.8858 93.2287 35.4551 93.2287 34.9689C93.2287 34.4827 93.1178 34.0563 92.8961 33.6895C92.6743 33.3228 92.3715 33.037 91.9877 32.8323C91.6039 32.6191 91.1646 32.5125 90.6699 32.5125C90.1838 32.5125 89.7445 32.6191 89.3522 32.8323C88.9684 33.037 88.6656 33.3228 88.4438 33.6895C88.2306 34.0563 88.124 34.4827 88.124 34.9689C88.124 35.4551 88.2306 35.8858 88.4438 36.2611C88.6656 36.6278 88.9684 36.9178 89.3522 37.1311C89.7445 37.3358 90.1838 37.4381 90.6699 37.4381ZM96.7671 38.5V29.007H97.6755V38.5H96.7671ZM103.184 38.564C102.485 38.564 101.87 38.419 101.342 38.129C100.813 37.8305 100.399 37.4253 100.101 36.9136C99.8021 36.3933 99.6528 35.8005 99.6528 35.1352C99.6528 34.4699 99.7935 33.8814 100.075 33.3697C100.365 32.8579 100.757 32.457 101.252 32.1671C101.755 31.8685 102.318 31.7193 102.941 31.7193C103.572 31.7193 104.131 31.8643 104.617 32.1543C105.112 32.4357 105.5 32.8366 105.781 33.3569C106.063 33.8686 106.203 34.4614 106.203 35.1352C106.203 35.1779 106.199 35.2248 106.19 35.276C106.19 35.3186 106.19 35.3655 106.19 35.4167H100.344V34.7386H105.704L105.346 35.0073C105.346 34.5211 105.239 34.0904 105.026 33.7151C104.822 33.3313 104.54 33.0328 104.182 32.8195C103.824 32.6063 103.41 32.4997 102.941 32.4997C102.48 32.4997 102.067 32.6063 101.7 32.8195C101.333 33.0328 101.047 33.3313 100.843 33.7151C100.638 34.0989 100.536 34.5382 100.536 35.0329V35.1736C100.536 35.6854 100.646 36.1374 100.868 36.5297C101.099 36.9136 101.414 37.2164 101.815 37.4381C102.224 37.6513 102.689 37.758 103.209 37.758C103.619 37.758 103.998 37.6855 104.348 37.5405C104.706 37.3955 105.013 37.1737 105.269 36.8752L105.781 37.4637C105.483 37.8219 105.107 38.0949 104.655 38.2825C104.212 38.4701 103.721 38.564 103.184 38.564ZM111.848 38.5V29.5443H115.2C115.959 29.5443 116.612 29.668 117.158 29.9153C117.704 30.1542 118.122 30.5039 118.412 30.9644C118.71 31.4165 118.859 31.9666 118.859 32.6148C118.859 33.246 118.71 33.7919 118.412 34.2524C118.122 34.7045 117.704 35.0542 117.158 35.3015C116.612 35.5489 115.959 35.6726 115.2 35.6726H112.373L112.795 35.2248V38.5H111.848ZM112.795 35.3015L112.373 34.841H115.175C116.07 34.841 116.748 34.6491 117.209 34.2652C117.678 33.8729 117.913 33.3228 117.913 32.6148C117.913 31.8984 117.678 31.344 117.209 30.9516C116.748 30.5593 116.07 30.3631 115.175 30.3631H112.373L112.795 29.9153V35.3015ZM120.967 38.5V29.007H121.876V38.5H120.967ZM128.74 38.5V37.0159L128.702 36.7728V34.2908C128.702 33.7194 128.54 33.2801 128.216 32.9731C127.9 32.666 127.427 32.5125 126.796 32.5125C126.361 32.5125 125.947 32.585 125.555 32.73C125.162 32.875 124.83 33.0669 124.557 33.3057L124.147 32.6276C124.489 32.3376 124.898 32.1159 125.376 31.9623C125.853 31.8003 126.356 31.7193 126.885 31.7193C127.755 31.7193 128.425 31.9368 128.894 32.3718C129.372 32.7982 129.61 33.4507 129.61 34.3292V38.5H128.74ZM126.425 38.564C125.921 38.564 125.482 38.4829 125.107 38.3209C124.74 38.1503 124.459 37.92 124.263 37.63C124.066 37.3315 123.968 36.9903 123.968 36.6065C123.968 36.2568 124.049 35.9412 124.211 35.6598C124.382 35.3698 124.655 35.1395 125.03 34.9689C125.414 34.7898 125.926 34.7002 126.565 34.7002H128.881V35.3783H126.591C125.943 35.3783 125.491 35.4934 125.235 35.7237C124.988 35.954 124.864 36.2398 124.864 36.5809C124.864 36.9647 125.013 37.2718 125.312 37.5021C125.61 37.7324 126.028 37.8475 126.565 37.8475C127.077 37.8475 127.516 37.7324 127.883 37.5021C128.258 37.2633 128.531 36.9221 128.702 36.4786L128.907 37.1055C128.736 37.549 128.438 37.903 128.011 38.1674C127.593 38.4318 127.064 38.564 126.425 38.564ZM132.132 41.046C131.816 41.046 131.513 40.9948 131.223 40.8924C130.942 40.7901 130.699 40.6366 130.494 40.4319L130.916 39.7538C131.087 39.9159 131.27 40.0395 131.466 40.1248C131.671 40.2186 131.897 40.2655 132.145 40.2655C132.443 40.2655 132.699 40.1803 132.912 40.0097C133.134 39.8476 133.343 39.5576 133.539 39.1397L133.974 38.1546L134.076 38.0138L136.84 31.7832H137.735L134.371 39.306C134.183 39.741 133.974 40.0864 133.744 40.3423C133.522 40.5982 133.279 40.7773 133.015 40.8797C132.75 40.9905 132.456 41.046 132.132 41.046ZM133.923 38.6919L130.827 31.7832H131.774L134.511 37.9499L133.923 38.6919Z" fill="white"/>
<rect x="4.31985" y="2.31985" width="159.565" height="48.3603" rx="6.07707" stroke="white" stroke-width="0.639692"/>
</g>
<defs>
<filter id="filter0_d_3200_1437" x="0" y="0" width="168.205" height="57" filterUnits="userSpaceOnUse" color-interpolation-filters="sRGB">
<feFlood flood-opacity="0" result="BackgroundImageFix"/>
<feColorMatrix in="SourceAlpha" type="matrix" values="0 0 0 0 0 0 0 0 0 0 0 0 0 0 0 0 0 0 127 0" result="hardAlpha"/>
<feOffset dy="2"/>
<feGaussianBlur stdDeviation="2"/>
<feColorMatrix type="matrix" values="0 0 0 0 0 0 0 0 0 0 0 0 0 0 0 0 0 0 0.1 0"/>
<feBlend mode="normal" in2="BackgroundImageFix" result="effect1_dropShadow_3200_1437"/>
<feBlend mode="normal" in="SourceGraphic" in2="effect1_dropShadow_3200_1437" result="shape"/>
</filter>
<clipPath id="clip0_3200_1437">
<rect width="22.3892" height="24.3083" fill="white" transform="translate(21.9121 14.3458)"/>
</clipPath>
</defs>
</svg>
