<svg width="2363" height="2406" viewBox="0 0 2363 2406" fill="none" xmlns="http://www.w3.org/2000/svg">
<g filter="url(#filter0_f_1819_1824)">
<path fill-rule="evenodd" clip-rule="evenodd" d="M861.039 1409.16C889.657 1446.46 907.172 1494.55 947.587 1518.57C988.054 1542.62 1044.16 1519.37 1085.22 1542.39C1158 1583.19 1193.06 1684.06 1274.57 1701.9C1348.03 1717.98 1432.32 1682.92 1485.81 1630.07C1539.46 1577.06 1530.69 1488.37 1560.72 1419.18C1590.42 1350.74 1661.96 1297.26 1662.63 1222.66C1663.29 1148.11 1590.12 1094.45 1564.23 1024.54C1536.5 949.676 1570.54 839.997 1504.36 795.346C1433.76 747.711 1335.75 831.346 1252.34 814.112C1180.88 799.346 1133.23 677.457 1065.52 704.671C985.661 736.769 1026.92 889.191 953.562 934.203C883.293 977.32 750.113 851.756 709.179 923.318C665.23 1000.15 809.309 1071.96 824.932 1159.08C833.507 1206.91 768.814 1246.52 775.757 1294.6C782.636 1342.24 831.741 1370.98 861.039 1409.16Z" fill="#002829"/>
</g>
<defs>
<filter id="filter0_f_1819_1824" x="0.876099" y="0.723389" width="2361.75" height="2405.11" filterUnits="userSpaceOnUse" color-interpolation-filters="sRGB">
<feFlood flood-opacity="0" result="BackgroundImageFix"/>
<feBlend mode="normal" in="SourceGraphic" in2="BackgroundImageFix" result="shape"/>
<feGaussianBlur stdDeviation="350" result="effect1_foregroundBlur_1819_1824"/>
</filter>
</defs>
</svg>
