<svg width="80" height="80" viewBox="0 0 80 80" fill="none" xmlns="http://www.w3.org/2000/svg">
<rect x="0.196899" y="0.112122" width="78.9235" height="78.9235" rx="23.2128" fill="#2B4D4C"/>
<path d="M25.4355 37.1814L28.3931 28.3085H50.0826L53.0402 37.1814M50.0826 47.0403C49.2981 47.0403 48.5459 46.7286 47.9912 46.174C47.4365 45.6193 47.1249 44.867 47.1249 44.0826C47.1249 43.2982 47.4365 42.5459 47.9912 41.9912C48.5459 41.4366 49.2981 41.125 50.0826 41.125C50.867 41.125 51.6193 41.4366 52.1739 41.9912C52.7286 42.5459 53.0402 43.2982 53.0402 44.0826C53.0402 44.867 52.7286 45.6193 52.1739 46.174C51.6193 46.7286 50.867 47.0403 50.0826 47.0403ZM28.3931 47.0403C27.6087 47.0403 26.8564 46.7286 26.3018 46.174C25.7471 45.6193 25.4355 44.867 25.4355 44.0826C25.4355 43.2982 25.7471 42.5459 26.3018 41.9912C26.8564 41.4366 27.6087 41.125 28.3931 41.125C29.1775 41.125 29.9298 41.4366 30.4845 41.9912C31.0392 42.5459 31.3508 43.2982 31.3508 44.0826C31.3508 44.867 31.0392 45.6193 30.4845 46.174C29.9298 46.7286 29.1775 47.0403 28.3931 47.0403ZM52.8825 27.3226C52.4881 26.179 51.3839 25.3508 50.0826 25.3508H45.1531V21.4073H33.3225V25.3508H28.3931C27.0918 25.3508 25.9876 26.179 25.5932 27.3226L21.4919 39.1532V54.9273C21.4919 55.4503 21.6997 55.9518 22.0695 56.3216C22.4392 56.6914 22.9408 56.8991 23.4637 56.8991H25.4355C25.9584 56.8991 26.4599 56.6914 26.8297 56.3216C27.1995 55.9518 27.4072 55.4503 27.4072 54.9273V52.9556H51.0684V54.9273C51.0684 55.4503 51.2762 55.9518 51.646 56.3216C52.0157 56.6914 52.5173 56.8991 53.0402 56.8991H55.012C55.5349 56.8991 56.0365 56.6914 56.4062 56.3216C56.776 55.9518 56.9837 55.4503 56.9837 54.9273V39.1532L52.8825 27.3226Z" fill="white"/>
</svg>
