<svg width="79" height="79" viewBox="0 0 79 79" fill="none" xmlns="http://www.w3.org/2000/svg">
<rect x="0.164062" y="0.0656738" width="78.7412" height="78.7412" rx="23.1592" fill="#F54135"/>
<path d="M19.4425 58.6887C19.4425 54.5148 21.1006 50.5118 24.052 47.5604C27.0034 44.609 31.0063 42.951 35.1802 42.951C39.3541 42.951 43.3571 44.609 46.3084 47.5604C49.2598 50.5118 50.9179 54.5148 50.9179 58.6887H46.9835C46.9835 55.5582 45.7399 52.556 43.5264 50.3425C41.3128 48.1289 38.3106 46.8854 35.1802 46.8854C32.0498 46.8854 29.0476 48.1289 26.834 50.3425C24.6205 52.556 23.3769 55.5582 23.3769 58.6887H19.4425ZM35.1802 40.9838C28.6589 40.9838 23.3769 35.7018 23.3769 29.1805C23.3769 22.6592 28.6589 17.3772 35.1802 17.3772C41.7015 17.3772 46.9835 22.6592 46.9835 29.1805C46.9835 35.7018 41.7015 40.9838 35.1802 40.9838ZM35.1802 37.0493C39.5278 37.0493 43.0491 33.528 43.0491 29.1805C43.0491 24.8329 39.5278 21.3116 35.1802 21.3116C30.8327 21.3116 27.3114 24.8329 27.3114 29.1805C27.3114 33.528 30.8327 37.0493 35.1802 37.0493ZM51.4766 44.3339C54.2412 45.579 56.5874 47.596 58.2332 50.1425C59.8789 52.689 60.7543 55.6566 60.754 58.6887H56.8196C56.82 56.4145 56.1636 54.1887 54.9292 52.2787C53.6949 50.3687 51.9351 48.8559 49.8615 47.9221L51.4766 44.3339ZM50.1232 22.1241C52.1052 22.9411 53.7998 24.3284 54.992 26.1101C56.1843 27.8918 56.8204 29.9875 56.8196 32.1313C56.8204 34.831 55.8117 37.4334 53.9918 39.4273C52.1718 41.4213 49.672 42.6627 46.9835 42.9077V38.9477C48.4411 38.7389 49.7934 38.0684 50.8418 37.0345C51.8902 36.0006 52.5796 34.6578 52.8087 33.2033C53.0378 31.7488 52.7946 30.2591 52.1147 28.953C51.4349 27.6469 50.3542 26.5931 49.0314 25.9464L50.1232 22.1241Z" fill="white"/>
</svg>
