<svg width="79" height="80" viewBox="0 0 79 80" fill="none" xmlns="http://www.w3.org/2000/svg">
<rect x="0.102509" y="0.978149" width="78.398" height="78.398" rx="23.0582" fill="#9747FF"/>
<g clip-path="url(#clip0_1564_2630)">
<path d="M38.8836 48.5732C39.6139 48.5732 40.3181 48.8453 40.8587 49.3363C41.3994 49.8273 41.7377 50.5021 41.8078 51.2291L41.8216 51.5111V55.4284C41.8217 56.1831 41.5314 56.9089 41.0109 57.4553C40.4904 58.0017 39.7796 58.3269 39.0258 58.3634C38.272 58.3999 37.5331 58.145 36.9622 57.6514C36.3913 57.1579 36.0322 56.4636 35.9594 55.7124L35.9456 55.4284V51.5111C35.9456 50.7319 36.2552 49.9847 36.8062 49.4337C37.3571 48.8827 38.1044 48.5732 38.8836 48.5732ZM31.762 21.2404C32.5178 21.4295 33.1675 21.9111 33.5682 22.5792C33.9689 23.2474 34.0879 24.0473 33.8989 24.8031L26.0643 56.1413C25.8661 56.8872 25.3824 57.5252 24.7176 57.9173C24.0529 58.3094 23.2606 58.4242 22.5119 58.2369C21.7632 58.0496 21.1182 57.5753 20.7165 56.9163C20.3147 56.2574 20.1883 55.4668 20.3647 54.7155L28.1992 23.3772C28.3884 22.6215 28.87 21.9718 29.5381 21.571C30.2062 21.1703 31.0062 21.0514 31.762 21.2404ZM49.568 23.3772L57.4025 54.7155C57.5025 55.0918 57.5267 55.4843 57.4737 55.8701C57.4207 56.2559 57.2915 56.6273 57.0936 56.9627C56.8957 57.2981 56.6332 57.5909 56.3212 57.8239C56.0091 58.0569 55.6539 58.2256 55.2761 58.3201C54.8984 58.4146 54.5056 58.4331 54.1206 58.3744C53.7356 58.3158 53.3661 58.1812 53.0336 57.9784C52.7011 57.7757 52.4123 57.5089 52.1838 57.1935C51.9554 56.8781 51.7919 56.5205 51.7029 56.1413L43.8683 24.8031C43.692 24.0518 43.8183 23.2612 44.2201 22.6023C44.6219 21.9433 45.2668 21.4689 46.0155 21.2816C46.7642 21.0943 47.5566 21.2092 48.2213 21.6013C48.886 21.9934 49.3698 22.6314 49.568 23.3772ZM38.8836 34.8627C39.6628 34.8627 40.4101 35.1722 40.9611 35.7232C41.512 36.2742 41.8216 37.0215 41.8216 37.8007V41.7179C41.8216 42.4971 41.512 43.2444 40.9611 43.7954C40.4101 44.3464 39.6628 44.6559 38.8836 44.6559C38.1044 44.6559 37.3571 44.3464 36.8062 43.7954C36.2552 43.2444 35.9456 42.4971 35.9456 41.7179V37.8007C35.9456 37.0215 36.2552 36.2742 36.8062 35.7232C37.3571 35.1722 38.1044 34.8627 38.8836 34.8627ZM38.8836 21.1522C39.6139 21.1523 40.3181 21.4243 40.8587 21.9153C41.3994 22.4064 41.7377 23.0812 41.8078 23.8081L41.8216 24.0902V28.0075C41.8217 28.7621 41.5314 29.4879 41.0109 30.0343C40.4904 30.5808 39.7796 30.906 39.0258 30.9425C38.272 30.979 37.5331 30.724 36.9622 30.2305C36.3913 29.7369 36.0322 29.0426 35.9594 28.2915L35.9456 28.0075V24.0902C35.9456 23.311 36.2552 22.5637 36.8062 22.0127C37.3571 21.4618 38.1044 21.1522 38.8836 21.1522Z" fill="white"/>
</g>
<defs>
<clipPath id="clip0_1564_2630">
<rect width="47.0073" height="47.0073" fill="white" transform="translate(15.3799 16.2555)"/>
</clipPath>
</defs>
</svg>
