<svg width="25" height="24" viewBox="0 0 25 24" fill="none" xmlns="http://www.w3.org/2000/svg">
<path d="M20.707 4H4.70703C3.60703 4 2.71703 4.9 2.71703 6L2.70703 18C2.70703 19.1 3.60703 20 4.70703 20H20.707C21.807 20 22.707 19.1 22.707 18V6C22.707 4.9 21.807 4 20.707 4ZM20.307 8.25L13.237 12.67C12.917 12.87 12.497 12.87 12.177 12.67L5.10703 8.25C5.00676 8.19371 4.91895 8.11766 4.84892 8.02645C4.77889 7.93525 4.72809 7.83078 4.69961 7.71937C4.67112 7.60796 4.66553 7.49194 4.68319 7.37831C4.70084 7.26468 4.74137 7.15581 4.80231 7.0583C4.86326 6.96079 4.94336 6.87666 5.03776 6.811C5.13216 6.74533 5.2389 6.69951 5.35153 6.6763C5.46415 6.65309 5.58031 6.65297 5.69299 6.67595C5.80566 6.69893 5.91249 6.74453 6.00703 6.81L12.707 11L19.407 6.81C19.5016 6.74453 19.6084 6.69893 19.7211 6.67595C19.8337 6.65297 19.9499 6.65309 20.0625 6.6763C20.1752 6.69951 20.2819 6.74533 20.3763 6.811C20.4707 6.87666 20.5508 6.96079 20.6117 7.0583C20.6727 7.15581 20.7132 7.26468 20.7309 7.37831C20.7485 7.49194 20.7429 7.60796 20.7145 7.71937C20.686 7.83078 20.6352 7.93525 20.5651 8.02645C20.4951 8.11766 20.4073 8.19371 20.307 8.25Z" fill="#6CB75D"/>
</svg>
