<svg width="18" height="22" viewBox="0 0 18 22" fill="none" xmlns="http://www.w3.org/2000/svg">
<path d="M7.88695 1.83398C5.59974 1.83398 3.74988 3.69894 3.74988 6.00482C3.74988 7.04157 4.04538 8.01278 4.5832 8.88865C5.14466 9.80623 5.88343 10.5927 6.4508 11.5103C6.72857 11.9572 6.92951 12.3743 7.14228 12.8569C7.29594 13.1846 7.42005 13.7507 7.88695 13.7507C8.35385 13.7507 8.47796 13.1846 8.62571 12.8569C8.84439 12.3743 9.03942 11.9572 9.3172 11.5103C9.88457 10.5987 10.6233 9.81219 11.1848 8.88865C11.7285 8.01278 12.024 7.04157 12.024 6.00482C12.024 3.69894 10.1742 1.83398 7.88695 1.83398ZM7.88695 7.64336C7.49509 7.64336 7.11927 7.48642 6.84218 7.20707C6.56509 6.92772 6.40942 6.54884 6.40942 6.15378C6.40942 5.75871 6.56509 5.37983 6.84218 5.10048C7.11927 4.82113 7.49509 4.66419 7.88695 4.66419C8.27881 4.66419 8.65463 4.82113 8.93172 5.10048C9.20881 5.37983 9.36448 5.75871 9.36448 6.15378C9.36448 6.54884 9.20881 6.92772 8.93172 7.20707C8.65463 7.48642 8.27881 7.64336 7.88695 7.64336Z" fill="white"/>
<path d="M7.88695 1.83398C5.59974 1.83398 3.74988 3.69894 3.74988 6.00482C3.74988 7.04157 4.04538 8.01278 4.5832 8.88865C5.14466 9.80623 5.88343 10.5927 6.4508 11.5103C6.72857 11.9572 6.92951 12.3743 7.14228 12.8569C7.29594 13.1846 7.42005 13.7507 7.88695 13.7507C8.35385 13.7507 8.47796 13.1846 8.62571 12.8569C8.84439 12.3743 9.03942 11.9572 9.3172 11.5103C9.88457 10.5987 10.6233 9.81219 11.1848 8.88865C11.7285 8.01278 12.024 7.04157 12.024 6.00482C12.024 3.69894 10.1742 1.83398 7.88695 1.83398ZM7.88695 7.64336C7.49509 7.64336 7.11927 7.48642 6.84218 7.20707C6.56509 6.92772 6.40942 6.54884 6.40942 6.15378C6.40942 5.75871 6.56509 5.37983 6.84218 5.10048C7.11927 4.82113 7.49509 4.66419 7.88695 4.66419C8.27881 4.66419 8.65463 4.82113 8.93172 5.10048C9.20881 5.37983 9.36448 5.75871 9.36448 6.15378C9.36448 6.54884 9.20881 6.92772 8.93172 7.20707C8.65463 7.48642 8.27881 7.64336 7.88695 7.64336Z" fill="white"/>
</svg>
