<svg width="216" height="71" viewBox="0 0 216 71" fill="none" xmlns="http://www.w3.org/2000/svg">
<path d="M15.901 58.1237C13.4261 58.1237 12.1887 57.4638 12.1887 56.1439V22.7951H2.35111C1.11369 22.7951 0.494972 21.764 0.494972 19.7016V17.7836C0.494972 15.7212 1.11369 14.69 2.35111 14.69H31.6163C32.8537 14.69 33.4725 15.7212 33.4725 17.7836V19.7016C33.4725 21.764 32.8537 22.7951 31.6163 22.7951H21.7787V56.1439C21.7787 57.4638 20.5413 58.1237 18.0665 58.1237H15.901ZM35.2537 58.1237C32.7376 58.1237 31.4795 57.67 31.4795 56.7626C31.4795 56.5976 31.5001 56.4326 31.5414 56.2676C31.6239 56.0614 31.6858 55.8551 31.727 55.6489L45.3387 15.8655C45.6687 14.9993 46.8443 14.5662 48.8654 14.5662H52.0827C54.1451 14.5662 55.3206 14.9993 55.6094 15.8655L69.2211 55.6489C69.3448 56.0614 69.4067 56.4326 69.4067 56.7626C69.4067 57.67 68.3755 58.1237 66.3131 58.1237H63.5908C62.6833 58.1237 61.9203 58.0412 61.3015 57.8763C60.6828 57.67 60.291 57.3194 60.126 56.8244L57.6511 49.2761H43.0495L40.5746 56.8244C40.4096 57.2782 40.0796 57.6081 39.5847 57.8144C39.0897 58.0206 38.471 58.1237 37.7285 58.1237H35.2537ZM45.7099 41.1091H54.9907L51.464 30.096C51.2578 29.436 51.0721 28.7761 50.9071 28.1161C50.7834 27.4561 50.6597 26.7962 50.5359 26.1362H50.2884C50.1647 26.7962 50.0409 27.4561 49.9172 28.1161C49.7935 28.7761 49.6078 29.436 49.3604 30.096L45.7099 41.1091ZM136.551 58.1856C134.076 58.1856 132.838 57.505 132.838 56.1439V16.5461C132.838 15.185 134.076 14.5044 136.551 14.5044H138.716C141.191 14.5044 142.429 15.185 142.429 16.5461V56.1439C142.429 57.505 141.191 58.1856 138.716 58.1856H136.551ZM162.302 58.1237C159.827 58.1237 158.59 57.4638 158.59 56.1439V22.7951H148.752C147.515 22.7951 146.896 21.764 146.896 19.7016V17.7836C146.896 15.7212 147.515 14.69 148.752 14.69H178.017C179.255 14.69 179.873 15.7212 179.873 17.7836V19.7016C179.873 21.764 179.255 22.7951 178.017 22.7951H168.18V56.1439C168.18 57.4638 166.942 58.1237 164.467 58.1237H162.302ZM196.63 58.1237C194.155 58.1237 192.918 57.4638 192.918 56.1439V37.2112L180.605 17.3505C180.193 16.6493 179.986 16.1337 179.986 15.8037C179.986 15.4324 180.296 15.1437 180.915 14.9375C181.574 14.69 182.585 14.5662 183.946 14.5662H186.607C187.514 14.5662 188.277 14.6487 188.896 14.8137C189.556 14.9787 190.03 15.2881 190.319 15.7418L197.867 28.9823L205.477 15.7418C205.766 15.2881 206.22 14.9787 206.839 14.8137C207.499 14.6487 208.282 14.5662 209.19 14.5662H211.417C214.016 14.5662 215.315 14.9787 215.315 15.8037C215.315 15.9687 215.274 16.1955 215.191 16.4843C215.109 16.7317 214.964 17.0205 214.758 17.3505L202.446 37.3968V56.1439C202.446 57.4638 201.208 58.1237 198.733 58.1237H196.63Z" fill="white"/>
<path d="M86.1175 57.9658H73.9928C72.2129 57.9658 71.3106 55.8236 72.5542 54.5501L108.919 17.3117C110.28 15.9178 112.173 15.1741 114.119 15.2689L124.899 15.7942C126.622 15.8782 127.446 17.951 126.251 19.1955L91.0262 55.8742C89.7429 57.2105 87.9702 57.9658 86.1175 57.9658Z" fill="white"/>
<path d="M125.831 57.8885H108.546C106.226 32.9852 83.346 18.4068 72.1963 14.2304C104.617 11.9412 121.461 42.3819 125.831 57.8885Z" fill="black"/>
<g filter="url(#filter0_f_1564_2301)">
<path d="M101.546 45.9009L110.479 46.3649L100.077 32.2892L94.702 28.6929L90.1003 30.8971L101.546 45.9009Z" fill="black"/>
</g>
<path d="M84.2612 17.4013C87.3155 18.5617 110.943 27.1074 117.44 55.1816" stroke="#D99631" stroke-width="0.696054" stroke-dasharray="3.87 3.87"/>
<defs>
<filter id="filter0_f_1564_2301" x="82.8304" y="21.423" width="34.9187" height="32.2118" filterUnits="userSpaceOnUse" color-interpolation-filters="sRGB">
<feFlood flood-opacity="0" result="BackgroundImageFix"/>
<feBlend mode="normal" in="SourceGraphic" in2="BackgroundImageFix" result="shape"/>
<feGaussianBlur stdDeviation="3.63495" result="effect1_foregroundBlur_1564_2301"/>
</filter>
</defs>
</svg>
