<svg width="105" height="34" viewBox="0 0 105 34" fill="none" xmlns="http://www.w3.org/2000/svg">
<path d="M7.69392 28.0599C6.49643 28.0599 5.89768 27.7405 5.89768 27.1019V10.9656H1.13762C0.538874 10.9656 0.2395 10.4666 0.2395 9.46872V8.54066C0.2395 7.54274 0.538874 7.04378 1.13762 7.04378H15.298C15.8968 7.04378 16.1962 7.54274 16.1962 8.54066V9.46872C16.1962 10.4666 15.8968 10.9656 15.298 10.9656H10.538V27.1019C10.538 27.7405 9.93923 28.0599 8.74174 28.0599H7.69392ZM17.058 28.0599C15.8406 28.0599 15.2318 27.8403 15.2318 27.4013C15.2318 27.3214 15.2418 27.2416 15.2618 27.1618C15.3017 27.062 15.3316 26.9622 15.3516 26.8624L21.9378 7.61259C22.0975 7.19347 22.6663 6.98391 23.6443 6.98391H25.201C26.1989 6.98391 26.7677 7.19347 26.9075 7.61259L33.4937 26.8624C33.5536 27.062 33.5835 27.2416 33.5835 27.4013C33.5835 27.8403 33.0845 28.0599 32.0866 28.0599H30.7694C30.3303 28.0599 29.9611 28.02 29.6617 27.9401C29.3623 27.8403 29.1727 27.6707 29.0929 27.4312L27.8954 23.7788H20.8302L19.6327 27.4312C19.5528 27.6507 19.3932 27.8104 19.1537 27.9102C18.9142 28.01 18.6148 28.0599 18.2555 28.0599H17.058ZM22.1175 19.8271H26.6081L24.9016 14.4982C24.8019 14.1789 24.712 13.8595 24.6322 13.5402C24.5723 13.2209 24.5125 12.9015 24.4526 12.5822H24.3328C24.273 12.9015 24.2131 13.2209 24.1532 13.5402C24.0933 13.8595 24.0035 14.1789 23.8838 14.4982L22.1175 19.8271ZM66.0722 28.0898C64.8747 28.0898 64.2759 27.7605 64.2759 27.1019V7.94191C64.2759 7.28328 64.8747 6.95397 66.0722 6.95397H67.12C68.3175 6.95397 68.9162 7.28328 68.9162 7.94191V27.1019C68.9162 27.7605 68.3175 28.0898 67.12 28.0898H66.0722ZM78.5323 28.0599C77.3348 28.0599 76.736 27.7405 76.736 27.1019V10.9656H71.9759C71.3772 10.9656 71.0778 10.4666 71.0778 9.46872V8.54066C71.0778 7.54274 71.3772 7.04378 71.9759 7.04378H86.1364C86.7351 7.04378 87.0345 7.54274 87.0345 8.54066V9.46872C87.0345 10.4666 86.7351 10.9656 86.1364 10.9656H81.3763V27.1019C81.3763 27.7405 80.7776 28.0599 79.5801 28.0599H78.5323ZM95.1424 28.0599C93.9449 28.0599 93.3461 27.7405 93.3461 27.1019V17.941L87.3886 8.33109C87.189 7.9918 87.0892 7.74232 87.0892 7.58266C87.0892 7.40303 87.2389 7.26332 87.5383 7.16353C87.8576 7.04378 88.3466 6.98391 89.0052 6.98391H90.2925C90.7316 6.98391 91.1008 7.02383 91.4002 7.10366C91.7195 7.18349 91.9491 7.33318 92.0888 7.55272L95.7411 13.9593L99.4234 7.55272C99.5632 7.33318 99.7827 7.18349 100.082 7.10366C100.401 7.02383 100.781 6.98391 101.22 6.98391H102.297C103.555 6.98391 104.183 7.18349 104.183 7.58266C104.183 7.66249 104.164 7.77226 104.124 7.91197C104.084 8.03172 104.014 8.17143 103.914 8.33109L97.9565 18.0308V27.1019C97.9565 27.7405 97.3578 28.0599 96.1603 28.0599H95.1424Z" fill="#002928"/>
<circle cx="47.7555" cy="15.9184" r="13" fill="white" stroke="#002928" stroke-width="0.530612"/>
<path d="M43.8342 22.4592H40.2186C39.6878 22.4592 39.4187 21.8204 39.7896 21.4406L50.6335 10.3361C51.0394 9.92046 51.604 9.69868 52.1843 9.72696L55.3988 9.8836C55.9127 9.90864 56.1585 10.5268 55.8021 10.8979L45.298 21.8354C44.9153 22.2339 44.3867 22.4592 43.8342 22.4592Z" fill="white" stroke="#002928" stroke-width="0.245313"/>
<path d="M55.6775 22.4361H50.523C49.8311 15.01 43.0085 10.6627 39.6836 9.4173C49.3514 8.73465 54.3745 17.8121 55.6775 22.4361Z" fill="black"/>
<path d="M43.2793 10.3629C44.1901 10.7089 51.2359 13.2572 53.1731 21.6289" stroke="#FFEB3B" stroke-width="0.207563" stroke-dasharray="1.15 1.15"/>
</svg>
