<svg width="24" height="20" viewBox="0 0 24 20" fill="none" xmlns="http://www.w3.org/2000/svg">
<path d="M13.0589 13.4854C12.7332 13.659 12.3698 13.7498 12.0007 13.7498C11.6316 13.7498 11.2682 13.659 10.9424 13.4854L-6.69628e-05 7.65039V16.7501C-0.00438499 17.1453 0.0702635 17.5374 0.219499 17.9033C0.368734 18.2692 0.589549 18.6016 0.86899 18.8811C1.14843 19.1605 1.48087 19.3813 1.84679 19.5306C2.21272 19.6798 2.60477 19.7545 2.99993 19.7501H20.9999C21.3951 19.7545 21.7871 19.6798 22.1531 19.5306C22.519 19.3813 22.8514 19.1605 23.1309 18.8811C23.4103 18.6016 23.6311 18.2692 23.7804 17.9033C23.9296 17.5374 24.0043 17.1453 23.9999 16.7501V7.65039L13.0589 13.4854Z" fill="white"/>
<path d="M20.9999 0.250177H2.99993C2.60477 0.245859 2.21272 0.320508 1.84679 0.469743C1.48087 0.618978 1.14843 0.839794 0.86899 1.11923C0.589549 1.39867 0.368734 1.73111 0.219499 2.09704C0.0702635 2.46297 -0.00438499 2.85501 -6.69628e-05 3.25018V5.50018C-0.000184805 5.63616 0.0366706 5.76962 0.106556 5.88627C0.176441 6.00292 0.276727 6.09838 0.396683 6.16243L11.6467 12.1624C11.7555 12.22 11.8768 12.2501 11.9999 12.2501C12.1231 12.2501 12.2443 12.22 12.3532 12.1624L23.6032 6.16243C23.7231 6.09838 23.8234 6.00292 23.8933 5.88627C23.9632 5.76962 24.0001 5.63616 23.9999 5.50018V3.25018C24.0043 2.85501 23.9296 2.46297 23.7804 2.09704C23.6311 1.73111 23.4103 1.39867 23.1309 1.11923C22.8514 0.839794 22.519 0.618978 22.1531 0.469743C21.7871 0.320508 21.3951 0.245859 20.9999 0.250177Z" fill="white"/>
</svg>
