<svg width="25" height="25" viewBox="0 0 25 25" fill="none" xmlns="http://www.w3.org/2000/svg">
<g clip-path="url(#clip0_3292_2210)">
<path fill-rule="evenodd" clip-rule="evenodd" d="M17.385 22.1641C15.945 22.1111 11.864 21.5471 7.59001 17.2741C3.31701 13.0001 2.75401 8.9201 2.70001 7.4791C2.62001 5.2831 4.30201 3.1501 6.24501 2.3171C6.47898 2.21607 6.73521 2.1776 6.98854 2.20547C7.24187 2.23335 7.4836 2.32661 7.69001 2.4761C9.29001 3.6421 10.394 5.4061 11.342 6.7931C11.5506 7.09783 11.6398 7.46865 11.5926 7.8349C11.5454 8.20115 11.3651 8.53723 11.086 8.7791L9.13501 10.2281C9.04075 10.2962 8.9744 10.3961 8.94828 10.5094C8.92217 10.6227 8.93806 10.7416 8.99301 10.8441C9.43501 11.6471 10.221 12.8431 11.121 13.7431C12.022 14.6431 13.274 15.4811 14.133 15.9731C14.2407 16.0336 14.3675 16.0505 14.4873 16.0203C14.607 15.9902 14.7107 15.9153 14.777 15.8111L16.047 13.8781C16.2805 13.5679 16.6249 13.3602 17.0082 13.2983C17.3914 13.2364 17.7838 13.3252 18.103 13.5461C19.51 14.5201 21.152 15.6051 22.354 17.1441C22.5156 17.352 22.6184 17.5995 22.6517 17.8607C22.6849 18.122 22.6474 18.3873 22.543 18.6291C21.706 20.5821 19.588 22.2451 17.385 22.1641Z" fill="#6CB75D"/>
</g>
<defs>
<clipPath id="clip0_3292_2210">
<rect width="24" height="24" fill="white" transform="translate(0.832031 0.0311279)"/>
</clipPath>
</defs>
</svg>
