<svg width="14" height="16" viewBox="0 0 14 16" fill="none" xmlns="http://www.w3.org/2000/svg">
<path d="M3.86167 7.19333C4.70167 9.08 6.055 10.62 7.70583 11.5867L8.98917 10.12C9.14667 9.94 9.38 9.88 9.58417 9.96C10.2375 10.2067 10.9433 10.34 11.6667 10.34C11.9875 10.34 12.25 10.64 12.25 11.0067V13.3333C12.25 13.7 11.9875 14 11.6667 14C6.18917 14 1.75 8.92667 1.75 2.66667C1.75 2.3 2.0125 2 2.33333 2H4.375C4.69583 2 4.95833 2.3 4.95833 2.66667C4.95833 3.5 5.075 4.3 5.29083 5.04667C5.355 5.28 5.30833 5.54 5.145 5.72667L3.86167 7.19333Z" fill="white"/>
<path d="M3.86167 7.19333C4.70167 9.08 6.055 10.62 7.70583 11.5867L8.98917 10.12C9.14667 9.94 9.38 9.88 9.58417 9.96C10.2375 10.2067 10.9433 10.34 11.6667 10.34C11.9875 10.34 12.25 10.64 12.25 11.0067V13.3333C12.25 13.7 11.9875 14 11.6667 14C6.18917 14 1.75 8.92667 1.75 2.66667C1.75 2.3 2.0125 2 2.33333 2H4.375C4.69583 2 4.95833 2.3 4.95833 2.66667C4.95833 3.5 5.075 4.3 5.29083 5.04667C5.355 5.28 5.30833 5.54 5.145 5.72667L3.86167 7.19333Z" fill="white"/>
</svg>
