<svg width="1280" height="906" viewBox="0 0 1280 906" fill="none" xmlns="http://www.w3.org/2000/svg">
<path d="M932.58 1.78011C934.062 2.9637 935.809 3.82578 937.696 4.30174C940.095 4.30174 939.775 4.30174 932.261 14.8335C918.058 34.4557 911.722 58.0761 914.354 81.585C916.432 129.053 935.298 169.697 982.144 226.658C1017.63 270.417 1028.35 293.41 1021.8 313.435C1018.27 324.116 1009.32 331.829 981.021 348.739C958.902 361.024 939.44 377.02 923.627 395.91C905.861 418.288 882.109 435.978 854.72 447.234C848.005 449.905 827.219 456.282 808.354 462.068C746 479.572 733.371 484.911 714.024 501.229C694.679 517.546 686.685 536.829 684.287 587.264C681.888 637.699 678.372 652.384 666.859 668.108C660.758 676.53 652.147 683.127 642.079 687.094C628.334 693.435 613.138 696.59 597.791 696.29C564.217 697.626 540.556 693.028 472.286 671.964C389.308 646.301 382.273 644.522 361.329 642.297C347.461 639.723 333.06 641.613 320.505 647.653C307.947 653.694 297.985 663.525 292.261 675.524C267.959 713.646 253.251 727.886 227.35 739.754C201.185 750.115 173.133 755.753 144.692 756.366C110.856 757.692 76.9597 755.953 43.4876 751.175L4.4766 747.17H0V739.308C0 734.858 1.116e-06 730.853 1.44 730.557C9.04766 730.543 16.6443 731.138 24.1431 732.336C49.8589 735.926 75.8378 737.662 101.844 737.529C135.737 738.999 169.568 733.582 200.97 721.656C227.989 709.641 239.341 695.846 263.323 646.154C276.432 619.007 290.023 608.623 316.402 606.251C336.068 604.619 365.806 612.332 419.525 632.952C461.859 651.341 506.565 664.603 552.545 672.409C605.946 678.639 639.041 661.283 648.474 622.419C651.081 605.422 652.256 588.262 651.99 571.094C653.429 526.595 654.87 514.43 661.744 496.926C666.572 483.709 675.195 471.965 686.685 462.958C708.109 444.565 730.013 437.592 783.732 431.213C855.839 422.907 876.623 414.452 913.554 378.11C927.756 363.37 943.863 350.316 961.514 339.245C983.906 324.411 991.412 317.884 996.212 309.578C1006.77 291.035 999.565 269.675 968.714 227.548C931.941 177.559 916.273 147.15 907.64 108.879C903.414 84.5603 903.414 59.7707 907.64 35.4517C911.225 22.2258 918.314 10.0392 928.263 0C929.952 0.591795 931.52 1.44442 932.9 2.52163L932.58 1.78011Z" fill="#002928" fill-opacity="0.04"/>
<path d="M885.411 3.40814C878.757 22.5134 876.531 42.7148 878.881 62.6791C883.911 113.719 900.179 163.25 926.672 208.19C944.834 242.715 947.702 250.273 947.863 265.535C947.863 285.539 941.01 295.171 910.902 320.362C864.703 358.147 848.454 365.853 808.469 369.26C781.455 370.372 754.39 369.43 727.543 366.445C702.8 363.498 677.662 365.933 654.103 373.556C625.11 385.56 607.904 411.491 599.144 456.834C594.495 482.539 592.15 508.56 592.134 534.627C590.7 576.116 589.106 585.6 581.618 599.973C571.104 619.237 548.802 627.831 517.898 624.572C486.993 621.312 462.619 613.754 402.88 589.305C343.14 564.856 326.733 559.669 301.881 558.928C288.577 557.08 274.985 559.195 263.053 564.97C251.12 570.747 241.458 579.888 235.452 591.083C229.8 602.486 224.802 614.159 220.477 626.054C214.901 640.872 208.37 656.578 205.821 661.467C199.763 672.923 191.125 683.031 180.491 691.103C158.042 703.823 132.753 711.579 106.574 713.775C78.4821 716.01 50.2362 716.01 22.1431 713.775L0 711.997V696.882H40.7814C59.3748 697.786 78.0186 696.793 96.3789 693.919C121.012 691.146 144.197 681.6 162.967 666.506C176.271 654.178 185.927 638.867 191.006 622.053C197.913 602.083 206.986 582.82 218.087 564.559C223.359 556.766 230.341 550.099 238.578 544.99C246.813 539.884 256.117 536.452 265.879 534.923C278.815 532.54 292.13 532.54 305.068 534.923C328.803 538.331 344.734 543.517 412.757 569.597C458.317 586.933 479.505 591.824 505.631 590.934C511.83 591.521 518.09 590.844 523.978 588.952C529.865 587.057 535.239 583.993 539.722 579.97C551.351 569.597 557.883 550.334 561.069 517.29C564.557 478.505 570.891 439.988 580.026 402.007C593.886 354.887 619.693 335.92 670.351 335.92C680.07 335.92 698.389 337.105 711.292 338.44L752.552 343.033C776.355 345.822 800.439 345.822 824.239 343.033C853.577 336.793 880.218 322.491 900.705 301.987C914.343 292.411 923.793 278.569 927.309 263.017C930.336 248.198 927.309 235.9 908.353 193.965C887.13 149.39 873.583 101.986 868.207 53.4921C866.506 37.1381 867.581 20.6364 871.394 4.5933C872.668 0.148142 872.828 0 879.199 0C885.572 0 885.572 4.88477e-06 884.616 2.81477L885.411 3.40814Z" fill="#002928" fill-opacity="0.04"/>
<path d="M807.396 2.96607C807.396 4.59725 809.152 12.0116 810.429 19.7239C811.707 27.4345 815.219 42.1167 818.094 52.6455C820.967 63.1747 827.034 83.788 831.345 98.7661C839.648 124.636 844.212 151.416 844.917 178.402C844.917 203.762 840.126 216.812 827.514 227.341C819.655 233.837 810.153 238.377 799.892 240.54C787.054 243.763 773.687 244.769 760.456 243.506C726.928 243.506 719.424 242.615 654.283 229.714C589.142 216.812 568.387 214.142 548.11 215.773C509.313 218.739 491.272 233.125 484.246 266.639C483.128 271.978 481.851 291.406 480.894 312.167C481.765 339.198 477.716 366.172 468.919 391.952C465.535 404.261 458.881 415.584 449.563 424.887C440.247 434.187 428.567 441.169 415.594 445.19C395.955 451.271 387.972 452.012 326.183 452.16C302.045 451.42 277.88 452.212 253.859 454.533C220.432 459.114 188.826 471.572 162.054 490.718C155.188 495.167 133.315 513.407 113.199 531.202C66.5778 572.43 42.3097 589.04 7.9828 602.534L0 605.798V584.738L9.41949 578.955C37.041 561.901 71.5275 538.47 95.6361 520.377C123.519 497.881 154.238 478.609 187.122 462.987C224.002 445.933 249.387 441.482 320.756 438.962C345.897 439.045 370.967 436.458 395.476 431.25C410.447 427.587 424.007 420.08 434.596 409.589C445.186 399.097 452.379 386.046 455.349 371.932C461.672 347.683 463.881 322.664 461.894 297.782C461.894 252.404 462.853 243.209 469.558 229.417C474.93 220.023 482.857 212.098 492.549 206.431C512.724 197.722 535.168 194.582 557.21 197.385C585.308 199.796 613.133 204.41 640.392 211.176C710.323 226.006 716.71 226.895 750.877 226.895C764.873 228.444 779.06 227.283 792.549 223.485C801.169 221.523 809.109 217.552 815.618 211.948C822.128 206.342 826.991 199.289 829.749 191.452C832.496 181.786 833.415 171.751 832.464 161.793C832.464 132.875 829.589 119.083 812.826 65.3991C806.172 45.2215 801.207 24.5961 797.977 3.70758C797.977 0.296293 797.977 0 802.127 0C806.279 0 806.597 -2.44239e-06 806.918 2.81713L807.396 2.96607Z" fill="#002928" fill-opacity="0.04"/>
<path d="M745.434 9.26315C748.781 22.0147 754.201 40.9923 760.259 59.8222C767.45 78.4692 771.118 98.1331 771.099 117.943C771.26 125.06 769.331 132.083 765.52 138.256C762.588 143.395 758.537 147.909 753.623 151.509C748.71 155.109 743.042 157.715 736.984 159.162C726.245 161.879 715.077 162.832 703.985 161.979C674.336 161.979 668.118 160.941 600.686 147.152C571.182 139.437 540.774 135.105 510.14 134.253C489.56 132.889 468.886 134.947 449.084 140.332C392.652 155.159 375.117 190.001 385.319 267.249C389.094 290.693 389.094 314.529 385.319 337.972C382.437 349.076 376.504 359.294 368.102 367.625C352.161 382.452 333.509 387.938 269.584 397.28C242.395 400.377 215.487 405.332 189.081 412.106C161.822 419.222 80.2017 437.459 64.2609 439.979C57.7246 441.019 44.0155 442.798 33.9718 443.836C22.9289 444.127 12.0713 446.551 2.08918 450.952C0.655136 452.138 0.335982 449.47 0.335982 435.236C-0.425719 429.069 0.114707 422.823 1.92917 416.851C12.5034 415.598 23.1538 415.003 33.8122 415.071C87.3528 412.755 140.636 406.758 193.226 397.131C208.211 394.017 233.398 389.421 249.34 386.901C272.016 384.184 294.41 379.72 316.292 373.557C345.944 364.512 359.175 352.651 366.03 329.077C369.413 308.239 369.413 287.048 366.03 266.211C359.812 216.096 362.522 189.112 376.391 165.092C388.507 144.187 409.231 132.77 450.996 123.726C465.309 121.03 479.94 120.083 494.516 120.909C527.786 120.504 560.933 124.702 592.874 133.363C652.176 145.669 675.61 148.19 698.885 148.19C734.913 146.263 751.97 133.363 754.041 106.527C753.868 86.3203 750.098 66.2802 742.883 47.22C738.261 30.7624 734.434 15.0456 734.274 12.3766C734.115 9.70837 734.274 7.78091 739.216 7.33569C744.157 6.89125 744.476 7.33569 745.274 10.598L745.434 9.26315Z" fill="#002928" fill-opacity="0.04"/>
<path d="M595.405 8.59487C599.085 8.59487 602.125 9.4735 602.125 10.059C601.001 12.3553 599.662 14.5601 598.126 16.6467C593.29 22.8886 586.848 27.9436 579.368 31.3652C571.89 34.7867 563.605 36.4683 555.248 36.2627C533.325 37.3107 511.35 36.9199 489.489 35.0917C395.734 30.4077 331.578 36.8481 294.619 54.1222C280.454 61.4209 268.77 72.1615 260.861 85.1564C253.523 98.2955 249.737 112.854 249.821 127.609C246.301 172.697 242.141 191.142 230.302 213.1C220.359 234.116 201.975 250.833 178.944 259.798C161.995 268.07 142.942 272.061 123.748 271.363C108.563 271.354 93.4296 269.783 78.6299 266.678C57.0362 261.878 34.93 259.275 12.712 258.919H0.393347V237.987C-0.46027 230.588 0.0810112 223.111 1.9925 215.881C14.086 214.429 26.2739 213.745 38.4714 213.832C100.228 212.368 125.027 208.415 155.906 194.801C168.823 189.638 180.592 182.343 190.624 173.282C207.744 158.643 212.543 145.615 214.623 113.409C214.566 100.025 216.668 86.7069 220.862 73.8846C225.569 62.5819 233.266 52.5229 243.262 44.6069C263.416 27.5284 289.305 17.2078 316.699 15.3292C365.751 12.0542 414.998 12.0542 464.051 15.3292C519.089 18.1109 539.888 16.9391 555.567 9.76664C561.674 7.4105 568.375 6.65085 574.926 7.57046C582.606 7.57046 591.726 7.57046 595.405 7.57046V8.59487Z" fill="#002928" fill-opacity="0.04"/>
<path d="M1158.02 13.9061L1173.98 14.6453L1166.32 16.8627C1147.9 21.2858 1129.17 24.5947 1110.28 26.768C1103.32 27.3204 1096.43 28.4591 1089.68 30.169C1093.54 30.303 1097.4 30.0051 1101.18 29.2817C1125.62 26.794 1149.85 22.6932 1173.67 17.0101C1186.28 13.9053 1194.58 13.1662 1192.19 15.0881C1176.67 20.3867 1160.63 24.2495 1144.29 26.6206L1102.77 32.2383C1073.81 34.2998 1045.45 41.0034 1018.96 52.0495C1007.5 56.8535 997.625 64.4082 990.374 73.9307C982.365 83.8813 978.408 96.1348 979.2 108.526C978.825 124.195 983.429 139.62 992.451 152.88C1005.23 176.091 1017.52 189.989 1067.97 238.039C1111.4 279.139 1123.69 298.359 1123.37 322.605C1123.37 335.468 1116.82 357.496 1113.96 354.983C1114.21 351.54 1115.02 348.153 1116.35 344.929C1118.99 337.447 1120.13 329.58 1119.7 321.718C1120.08 313.961 1118.2 306.253 1114.27 299.393C1105.97 281.652 1090.32 263.171 1053.92 229.315C995.012 174.022 972.817 139.278 974.093 104.535C974.059 91.911 978.68 79.6543 987.182 69.7911C1000.92 52.3454 1025.02 41.5526 1067.01 33.8648C1072.43 33.0256 1077.77 31.79 1082.98 30.169C1066.78 32.2265 1050.77 35.3896 1035.08 39.6307C1023.36 42.2555 1012.32 47.0041 1002.6 53.6017C992.868 60.1992 984.646 68.5154 978.399 78.0703C973.225 87.1675 970.689 97.3592 971.063 107.639C971.063 140.461 991.021 172.839 1041.47 221.628C1058.41 237.103 1074.4 253.44 1089.37 270.564C1104.44 285.671 1112.62 305.589 1112.2 326.153C1110.03 339.475 1105.22 352.309 1097.99 364.002C1086.2 379.642 1069.46 391.522 1050.09 398.007C1026.65 406.775 1006.23 421.291 991.021 439.994C982.885 451.82 976.246 464.469 971.217 477.694C952.842 521.564 920.279 559.104 877.979 585.177C859.776 596.142 842.724 608.665 827.047 622.581C812.754 638.688 802.743 657.679 797.829 678.023C780.587 731.1 759.832 752.98 713.372 766.73C672.499 778.854 632.424 780.48 566.485 772.644C488.412 763.33 458.076 766.73 425.188 788.316C413.213 796.152 382.878 817.885 382.878 818.772C382.878 819.659 382.878 818.772 403.952 807.387C421.335 796.861 439.914 788.136 459.355 781.367C483.622 774.714 514.756 775.158 572.871 782.402C601.377 787.044 630.314 789.026 659.246 788.316C723.11 785.949 769.731 771.609 795.595 746.031C808.025 732.392 818.343 717.215 826.25 700.94C831.766 690.743 837.951 680.869 844.77 671.371C856.584 656.586 873.509 645.201 910.389 627.756C922.365 622.138 937.371 614.303 944.076 610.459C966.587 596.377 985.319 577.716 998.842 555.903C1006.61 539.455 1012.91 522.447 1017.68 505.045C1020.2 496.816 1023.34 488.762 1027.1 480.946C1037.32 462.466 1055.2 450.047 1095.91 433.193C1113.28 427.202 1129.14 417.996 1142.54 406.138C1159.27 389.701 1171.91 370.071 1179.57 348.626C1184.2 328.876 1180.97 308.241 1170.48 290.522C1160.89 272.782 1149.08 259.476 1114.27 227.541C1070.2 187.18 1059.51 175.944 1048.97 158.646C1042.6 149.234 1039.42 138.26 1039.87 127.155C1041.63 107.491 1057.59 95.6637 1093.04 87.6801C1121.06 82.1983 1149.52 78.8362 1178.14 77.6268C1207.91 76.105 1237.53 72.547 1266.75 66.982C1280.31 63.4337 1280 63.2861 1280 71.2695C1280 76.592 1280 78.3658 1277.45 78.8094C1251.77 83.0682 1225.87 86.0295 1199.85 87.6801C1118.1 95.2202 1092.56 100.838 1075.48 115.031C1058.39 129.225 1061.91 149.331 1084.42 176.387C1089.21 182.153 1107.89 200.486 1125.93 216.896C1163.93 251.789 1178.14 267.607 1189.8 289.488C1198.71 303.689 1203.86 319.652 1204.8 336.059C1205.72 343.905 1204.96 351.843 1202.56 359.419C1194.32 386.363 1177.11 410.214 1153.39 427.575C1141.6 434.422 1129.33 440.547 1116.67 445.908C1076.27 463.649 1063.18 471.928 1052.81 486.86C1043.28 501.954 1037.05 518.63 1034.44 535.945C1031.92 551.846 1026.53 567.24 1018.48 581.481C1000.82 608.247 974.263 628.994 942.8 640.618C896.978 660.43 884.684 667.231 870.794 680.685C858.082 694.099 847.345 709.014 838.862 725.038C826.791 747.365 807.398 765.582 783.461 777.079C756.085 788.329 726.909 795.369 697.086 797.925C661.515 800.636 625.743 800.141 590.274 796.447C569.986 794.188 549.556 793.201 529.126 793.49C476.916 793.49 476.757 793.49 399.642 840.505C373.887 853.742 347.219 865.399 319.812 875.396C292.22 885.104 262.762 889.434 233.277 888.111C224.337 888.111 199.75 885.006 178.516 882.344C117.685 874.361 97.2488 874.213 59.0902 882.344C39.2114 884.594 20.2376 891.349 3.84849 902.009L0.0169991 906V883.824C0.0169991 857.063 -1.42044 858.838 22.5291 855.141C68.4168 849.534 114.817 848.445 160.953 851.888C187.5 854.284 214.235 854.284 240.782 851.888C273.621 845.848 305.067 834.54 333.703 818.475C353.853 806.631 373.306 793.802 391.979 780.037C403.216 771.697 415.178 764.23 427.742 757.712C450.22 749.594 474.544 746.848 498.47 749.728C518.108 751.206 523.377 751.798 566.964 758.008C626.039 766.287 661.641 765.251 699.16 754.163C712.517 750.96 725.012 745.236 735.865 737.349C746.717 729.462 755.692 719.583 762.227 708.332C770.541 692.763 776.452 676.19 779.789 659.099C782.644 643.413 788.026 628.213 795.755 614.007C809.442 597.386 826.331 583.25 845.569 572.314C864.173 561.214 881.792 548.755 898.256 535.058C925.89 513.526 947.753 486.349 962.119 455.665C981.438 419.443 996.765 405.84 1039.87 386.03C1056.12 380.531 1070.58 371.268 1081.86 359.123C1090.31 348.784 1094.85 336.161 1094.79 323.196C1095.93 315.54 1094.88 307.742 1091.76 300.576C1084.89 282.243 1072.92 266.869 1037.48 231.238C1012.08 208.617 990.536 182.543 973.617 153.915C946.629 104.091 958.604 59.1462 1004.27 37.8569C1024.54 28.3944 1045.3 23.0722 1098.31 15.5318C1117.76 12.4105 1137.58 11.7643 1157.22 13.6106L1158.02 13.9061Z" fill="#002928" fill-opacity="0.04"/>
</svg>
