<svg width="24" height="25" viewBox="0 0 24 25" fill="none" xmlns="http://www.w3.org/2000/svg">
<path d="M4.59398 5.4839C4.77504 5.46286 4.9584 5.49171 5.12425 5.56732C5.29009 5.64293 5.43212 5.76243 5.53498 5.9129C7.01098 8.0719 8.78298 8.9699 10.75 9.1739C10.846 8.3329 11.073 7.5019 11.5 6.7699C12.126 5.6959 13.144 4.9059 14.598 4.6139C16.608 4.2099 18.138 4.9379 19.025 5.8289L20.817 5.4939C21.0045 5.45877 21.1982 5.47801 21.3751 5.54935C21.552 5.6207 21.7049 5.74117 21.8156 5.89655C21.9263 6.05193 21.9902 6.23574 21.9999 6.42628C22.0095 6.61682 21.9644 6.80614 21.87 6.9719L20.15 9.9939C20.307 14.3549 19.095 17.3989 16.511 19.4959C15.141 20.6079 13.179 21.2389 11.026 21.4339C8.85598 21.6299 6.40298 21.3929 3.96498 20.6809C3.75667 20.6201 3.57378 20.4933 3.44391 20.3194C3.31403 20.1456 3.24422 19.9343 3.24501 19.7173C3.2458 19.5003 3.31715 19.2894 3.44829 19.1166C3.57943 18.9437 3.76324 18.8181 3.97198 18.7589C5.19798 18.4099 6.13198 18.1089 6.97498 17.5819C5.77598 16.9459 4.89298 16.1139 4.26798 15.1659C3.39998 13.8479 3.07798 12.3779 3.01398 11.0529C2.94998 9.7279 3.14098 8.4999 3.34298 7.6149C3.45798 7.1099 3.59198 6.6039 3.77698 6.1199C3.84224 5.94929 3.95298 5.79982 4.09719 5.6877C4.24139 5.57558 4.41255 5.5051 4.59398 5.4839Z" fill="white"/>
</svg>
