<svg width="22" height="23" viewBox="0 0 22 23" fill="none" xmlns="http://www.w3.org/2000/svg">
<g clip-path="url(#clip0_3292_2242)">
<path d="M0.466736 11.3684C0.466224 13.2168 0.949201 15.0216 1.86757 16.6125L0.378906 22.0478L5.94133 20.5893C7.47982 21.4269 9.20358 21.8657 10.9553 21.8658H10.9599C16.7426 21.8658 21.4498 17.1603 21.4523 11.3766C21.4534 8.57401 20.3629 5.93862 18.3817 3.95589C16.4009 1.97333 13.7664 0.880918 10.9595 0.879639C5.1761 0.879639 0.469209 5.58491 0.466821 11.3684" fill="url(#paint0_linear_3292_2242)"/>
<path d="M0.0912403 11.3649C0.0906434 13.2799 0.59093 15.1493 1.54205 16.7971L0 22.4273L5.76187 20.9165C7.34945 21.7821 9.13691 22.2385 10.9557 22.2392H10.9604C16.9506 22.2392 21.8269 17.3644 21.8295 11.3736C21.8305 8.47031 20.7008 5.74018 18.6488 3.68642C16.5966 1.63291 13.8679 0.501194 10.9604 0.5C4.96927 0.5 0.0936279 5.37411 0.0912403 11.3649ZM3.52256 16.5133L3.30742 16.1718C2.40303 14.7337 1.92568 13.072 1.92636 11.3656C1.92833 6.38619 5.98076 2.33504 10.9638 2.33504C13.377 2.33606 15.6449 3.27678 17.3507 4.98357C19.0563 6.69053 19.9949 8.9596 19.9943 11.3729C19.9921 16.3524 15.9396 20.404 10.9604 20.404H10.9569C9.33559 20.4032 7.74553 19.9678 6.35885 19.145L6.02885 18.9493L2.60964 19.8458L3.52256 16.5132V16.5133Z" fill="url(#paint1_linear_3292_2242)"/>
<path d="M8.24573 6.82274C8.04227 6.37054 7.82816 6.36142 7.63468 6.35349C7.47624 6.34666 7.29513 6.34718 7.11418 6.34718C6.93307 6.34718 6.63879 6.41531 6.39006 6.6869C6.14107 6.95874 5.43945 7.61567 5.43945 8.95179C5.43945 10.288 6.41265 11.5793 6.54832 11.7606C6.68416 11.9417 8.4271 14.7713 11.1875 15.8599C13.4816 16.7645 13.9485 16.5846 14.4464 16.5392C14.9444 16.494 16.0533 15.8825 16.2795 15.2483C16.5059 14.6142 16.5059 14.0707 16.438 13.9571C16.3701 13.844 16.189 13.776 15.9174 13.6403C15.6457 13.5044 14.3106 12.8474 14.0617 12.7568C13.8127 12.6662 13.6316 12.621 13.4505 12.8929C13.2694 13.1644 12.7493 13.776 12.5908 13.9571C12.4325 14.1387 12.2739 14.1613 12.0024 14.0254C11.7307 13.8892 10.8561 13.6027 9.81839 12.6776C9.01104 11.9578 8.46599 11.0688 8.30755 10.7969C8.14912 10.5254 8.29058 10.3782 8.42676 10.2429C8.54879 10.1212 8.69844 9.92576 8.83436 9.76724C8.96977 9.60863 9.01496 9.49548 9.10552 9.31436C9.19617 9.13308 9.1508 8.97447 9.08301 8.83863C9.01496 8.7028 8.48722 7.35969 8.24573 6.82274Z" fill="white"/>
</g>
<defs>
<linearGradient id="paint0_linear_3292_2242" x1="1054.05" y1="2117.7" x2="1054.05" y2="0.879639" gradientUnits="userSpaceOnUse">
<stop stop-color="#1FAF38"/>
<stop offset="1" stop-color="#60D669"/>
</linearGradient>
<linearGradient id="paint1_linear_3292_2242" x1="1091.47" y1="2193.23" x2="1091.47" y2="0.5" gradientUnits="userSpaceOnUse">
<stop stop-color="#F9F9F9"/>
<stop offset="1" stop-color="white"/>
</linearGradient>
<clipPath id="clip0_3292_2242">
<rect width="21.8295" height="22" fill="white" transform="translate(0 0.5)"/>
</clipPath>
</defs>
</svg>
